<?xml version="1.0" encoding="UTF-8" standalone="no" ?>
<!DOCTYPE svg PUBLIC "-//W3C//DTD SVG 1.1//EN" "http://www.w3.org/Graphics/SVG/1.1/DTD/svg11.dtd">
<svg xmlns="http://www.w3.org/2000/svg" xmlns:xlink="http://www.w3.org/1999/xlink" version="1.1" width="804" height="104" viewBox="0 0 804 104" xml:space="preserve">
<desc>Created with Fabric.js 5.2.4</desc>
<defs>
</defs>
<rect x="0" y="0" width="100%" height="100%" fill="transparent"></rect>
<g transform="matrix(0 0 0 0 0 0)" id="ae8fbee7-8b1b-422c-b142-8811ea91d4f6"  >
</g>
<g transform="matrix(1 0 0 1 402 52)" id="8e44a9da-0bea-4d8e-be71-832cb6f64ee5"  >
<rect style="stroke: none; stroke-width: 1; stroke-dasharray: none; stroke-linecap: butt; stroke-dashoffset: 0; stroke-linejoin: miter; stroke-miterlimit: 4; fill: rgb(255,255,255); fill-rule: nonzero; opacity: 1; visibility: hidden;" vector-effect="non-scaling-stroke"  x="-402" y="-52" rx="0" ry="0" width="804" height="104" />
</g>
<g transform="matrix(0.98 0 0 0.6 385.86 92.58)"  >
<g style="" vector-effect="non-scaling-stroke"   >
		<g transform="matrix(1 0 0 1 0 0)" clip-path="url(#CLIPPATH_142)"  >
<clipPath id="CLIPPATH_142" >
	<path transform="matrix(1 0 0 1 0 0) translate(-445.14, -147.45)" d="M 0 0 L 890.2808 0 L 890.2808 294.90552 L 0 294.90552 L 0 0 z" stroke-linecap="round" />
</clipPath>
<path style="stroke: none; stroke-width: 1; stroke-dasharray: none; stroke-linecap: square; stroke-dashoffset: 0; stroke-linejoin: miter; stroke-miterlimit: 10; fill: rgb(0,0,0); fill-opacity: 0; fill-rule: evenodd; opacity: 1;" vector-effect="non-scaling-stroke"  transform=" translate(-445.14, -147.45)" d="M 0 0 L 890.2808 0 L 890.2808 294.90552 L 0 294.90552 z" stroke-linecap="round" />
</g>
		<g transform="matrix(1 0 0 1 -279.44 -68.24)" clip-path="url(#CLIPPATH_143)"  >
<clipPath id="CLIPPATH_143" >
	<path transform="matrix(1 0 0 1 279.43 68.23) translate(-445.14, -147.45)" d="M 0 0 L 890.2808 0 L 890.2808 294.90552 L 0 294.90552 L 0 0 z" stroke-linecap="round" />
</clipPath>
<path style="stroke: none; stroke-width: 1; stroke-dasharray: none; stroke-linecap: square; stroke-dashoffset: 0; stroke-linejoin: miter; stroke-miterlimit: 10; fill: rgb(0,0,0); fill-rule: evenodd; opacity: 1;" vector-effect="non-scaling-stroke"  transform=" translate(-165.71, -79.22)" d="M 65.2336 22.905512 L 266.17847 22.905512 L 266.17847 135.53543200000001 L 65.2336 135.53543200000001 z" stroke-linecap="round" />
</g>
		<g transform="matrix(1 0 0 1 -279.44 -68.24)" clip-path="url(#CLIPPATH_144)"  >
<clipPath id="CLIPPATH_144" >
	<path transform="matrix(1 0 0 1 279.43 68.23) translate(-445.14, -147.45)" d="M 0 0 L 890.2808 0 L 890.2808 294.90552 L 0 294.90552 L 0 0 z" stroke-linecap="round" />
</clipPath>
<path style="stroke: rgb(255,255,255); stroke-width: 1; stroke-dasharray: none; stroke-linecap: butt; stroke-dashoffset: 0; stroke-linejoin: round; stroke-miterlimit: 10; fill: none; fill-rule: evenodd; opacity: 1;" vector-effect="non-scaling-stroke"  transform=" translate(-165.71, -79.22)" d="M 65.2336 22.905512 L 266.17847 22.905512 L 266.17847 135.53543200000001 L 65.2336 135.53543200000001 z" stroke-linecap="round" />
</g>
		<g transform="matrix(1 0 0 1 -280.26 -65.31)" clip-path="url(#CLIPPATH_145)"  >
<clipPath id="CLIPPATH_145" >
	<path transform="matrix(1 0 0 1 280.26 65.31) translate(-445.14, -147.45)" d="M 0 0 L 890.2808 0 L 890.2808 294.90552 L 0 294.90552 L 0 0 z" stroke-linecap="round" />
</clipPath>
<path style="stroke: none; stroke-width: 1; stroke-dasharray: none; stroke-linecap: square; stroke-dashoffset: 0; stroke-linejoin: miter; stroke-miterlimit: 10; fill: rgb(255,255,255); fill-rule: nonzero; opacity: 1;" vector-effect="non-scaling-stroke"  transform=" translate(-164.88, -82.14)" d="M 125.02546 88.540474 L 121.041085 88.540474 L 119.46296 84.415474 L 112.21296 84.415474 L 110.728585 88.540474 L 106.83796 88.540474 L 113.90046 70.415474 L 117.77546 70.415474 L 125.02546 88.540474 z M 118.291085 81.368599 L 115.791085 74.634224 L 113.33796 81.368599 L 118.291085 81.368599 z M 126.941628 88.540474 L 126.941628 70.415474 L 130.4259954 70.415474 L 130.4259954 88.540474 L 126.94162800000001 88.540474 z M 133.6660924 89.399849 L 137.6348424 89.884224 Q 137.7285924 90.587349 138.0879674 90.837349 Q 138.5879674 91.212349 139.6504674 91.212349 Q 141.0098424 91.212349 141.6817174 90.806099 Q 142.1504674 90.524849 142.3848424 89.931099 Q 142.5410924 89.493599 142.5410924 88.337349 L 142.5410924 86.415474 Q 140.9785924 88.540474 138.6035924 88.540474 Q 135.9629674 88.540474 134.4160924 86.306099 Q 133.1973424 84.540474 133.1973424 81.899849 Q 133.1973424 78.602974 134.7910924 76.852974 Q 136.3848424 75.102974 138.7442174 75.102974 Q 141.1817174 75.102974 142.7598424 77.243599 L 142.7598424 75.399849 L 146.0098424 75.399849 L 146.0098424 87.196724 Q 146.0098424 89.524849 145.6192174 90.665474 Q 145.2442174 91.821724 144.5567174 92.477974 Q 143.8692174 93.134224 142.7129674 93.493599 Q 141.5567174 93.868599 139.7910924 93.868599 Q 136.4473424 93.868599 135.0410924 92.727974 Q 133.6504674 91.587349 133.6504674 89.821724 Q 133.6504674 89.649849 133.6660924 89.399849 z M 136.7598424 81.696724 Q 136.7598424 83.790474 137.5723424 84.759224 Q 138.3848424 85.727974 139.5723424 85.727974 Q 140.8535924 85.727974 141.7285924 84.743599 Q 142.6035924 83.743599 142.6035924 81.790474 Q 142.6035924 79.743599 141.7598424 78.759224 Q 140.9160924 77.774849 139.6348424 77.774849 Q 138.3848424 77.774849 137.5723424 78.743599 Q 136.7598424 79.712349 136.7598424 81.696724 z M 148.6531534 81.790474 Q 148.6531534 80.056099 149.4969034 78.446724 Q 150.3562784 76.821724 151.9187784 75.962349 Q 153.4812784 75.102974 155.4187784 75.102974 Q 158.4031534 75.102974 160.2937784 77.040474 Q 162.2000284 78.977974 162.2000284 81.931099 Q 162.2000284 84.915474 160.2781534 86.884224 Q 158.3562784 88.837349 155.4344034 88.837349 Q 153.6375284 88.837349 151.9969034 88.024849 Q 150.3562784 87.212349 149.4969034 85.634224 Q 148.6531534 84.056099 148.6531534 81.790474 z M 152.2156534 81.977974 Q 152.2156534 83.931099 153.1375284 84.977974 Q 154.0750284 86.009224 155.4344034 86.009224 Q 156.7937784 86.009224 157.7156534 84.977974 Q 158.6375284 83.931099 158.6375284 81.946724 Q 158.6375284 80.024849 157.7156534 78.993599 Q 156.7937784 77.946724 155.4344034 77.946724 Q 154.0750284 77.946724 153.1375284 78.993599 Q 152.2156534 80.024849 152.2156534 81.977974 z M 169.5777134 88.540474 L 163.0933384 70.415474 L 167.0620884 70.415474 L 171.6558384 83.821724 L 176.0933384 70.415474 L 179.9839634 70.415474 L 173.4839634 88.540474 L 169.5777134 88.540474 z M 181.35743739999998 73.618599 L 181.35743739999998 70.415474 L 184.84181239999998 70.415474 L 184.84181239999998 73.618599 L 181.35743739999998 73.618599 z M 181.35743739999998 88.540474 L 181.35743739999998 75.399849 L 184.84181239999998 75.399849 L 184.84181239999998 88.540474 L 181.35743739999998 88.540474 z M 187.00378439999997 88.540474 L 187.00378439999997 85.837349 L 191.92565939999997 80.181099 Q 193.12878439999997 78.790474 193.72254969999997 78.212349 Q 193.11315943999998 78.243599 192.12878439999997 78.259224 L 187.48815939999997 78.290474 L 187.48815939999997 75.399849 L 198.34754939999996 75.399849 L 198.34754939999996 77.868599 L 193.31629939999996 83.649849 L 191.55065909999996 85.571724 Q 193.00378409999996 85.477974 193.34754939999996 85.477974 L 198.72254939999996 85.477974 L 198.72254939999996 88.540474 L 187.00378439999997 88.540474 z M 201.05848739999996 70.415474 L 204.73036239999996 70.415474 L 204.73036239999996 80.227974 Q 204.73036239999996 82.571724 204.85536239999996 83.259224 Q 205.08973739999996 84.368599 205.98036239999996 85.056099 Q 206.87098739999996 85.727974 208.40223739999996 85.727974 Q 209.94911239999996 85.727974 210.74598739999996 85.087349 Q 211.54286239999996 84.446724 211.69911239999996 83.524849 Q 211.85536239999996 82.587349 211.85536239999996 80.446724 L 211.85536239999996 70.415474 L 215.52723739999996 70.415474 L 215.52723739999996 79.931099 Q 215.52723739999996 83.196724 215.23036239999996 84.556099 Q 214.93348739999996 85.899849 214.13661239999996 86.821724 Q 213.33973739999996 87.743599 211.99598739999996 88.306099 Q 210.66786239999996 88.852974 208.51161239999996 88.852974 Q 205.91786239999996 88.852974 204.57411239999996 88.259224 Q 203.23036239999996 87.649849 202.44911239999996 86.696724 Q 201.66786239999996 85.727974 201.41786239999996 84.681099 Q 201.05848739999996 83.118599 201.05848739999996 80.087349 L 201.05848739999996 70.415474 z M 219.27153039999996 88.540474 L 219.27153039999996 70.415474 L 222.92778039999996 70.415474 L 222.92778039999996 88.540474 L 219.27153039999996 88.540474 z" stroke-linecap="round" />
</g>
		<g transform="matrix(1 0 0 1 11.8 -68.24)" clip-path="url(#CLIPPATH_146)"  >
<clipPath id="CLIPPATH_146" >
	<path transform="matrix(1 0 0 1 -11.81 68.23) translate(-445.14, -147.45)" d="M 0 0 L 890.2808 0 L 890.2808 294.90552 L 0 294.90552 L 0 0 z" stroke-linecap="round" />
</clipPath>
<path style="stroke: none; stroke-width: 1; stroke-dasharray: none; stroke-linecap: square; stroke-dashoffset: 0; stroke-linejoin: miter; stroke-miterlimit: 10; fill: rgb(0,0,0); fill-rule: evenodd; opacity: 1;" vector-effect="non-scaling-stroke"  transform=" translate(-456.95, -79.22)" d="M 356.47507 22.905512 L 557.41992 22.905512 L 557.41992 135.53543200000001 L 356.4750700000001 135.53543200000001 z" stroke-linecap="round" />
</g>
		<g transform="matrix(1 0 0 1 11.8 -68.24)" clip-path="url(#CLIPPATH_147)"  >
<clipPath id="CLIPPATH_147" >
	<path transform="matrix(1 0 0 1 -11.81 68.23) translate(-445.14, -147.45)" d="M 0 0 L 890.2808 0 L 890.2808 294.90552 L 0 294.90552 L 0 0 z" stroke-linecap="round" />
</clipPath>
<path style="stroke: rgb(0,0,0); stroke-width: 1; stroke-dasharray: none; stroke-linecap: butt; stroke-dashoffset: 0; stroke-linejoin: round; stroke-miterlimit: 10; fill: none; fill-rule: evenodd; opacity: 1;" vector-effect="non-scaling-stroke"  transform=" translate(-456.95, -79.22)" d="M 356.47507 22.905512 L 557.41992 22.905512 L 557.41992 135.53543200000001 L 356.4750700000001 135.53543200000001 z" stroke-linecap="round" />
</g>
		<g transform="matrix(1 0 0 1 10.98 -65.9)" clip-path="url(#CLIPPATH_148)"  >
<clipPath id="CLIPPATH_148" >
	<path transform="matrix(1 0 0 1 -10.98 65.9) translate(-445.14, -147.45)" d="M 0 0 L 890.2808 0 L 890.2808 294.90552 L 0 294.90552 L 0 0 z" stroke-linecap="round" />
</clipPath>
<path style="stroke: none; stroke-width: 1; stroke-dasharray: none; stroke-linecap: square; stroke-dashoffset: 0; stroke-linejoin: miter; stroke-miterlimit: 10; fill: rgb(255,255,255); fill-rule: nonzero; opacity: 1;" vector-effect="non-scaling-stroke"  transform=" translate(-456.12, -81.55)" d="M 387.7444 87.76047 L 383.978775 87.76047 L 382.478775 83.85422 L 375.603775 83.85422 L 374.197525 87.76047 L 370.510025 87.76047 L 377.197525 70.57297 L 380.8694 70.57297 L 387.7444 87.76047 z M 381.3694 80.963595 L 378.9944 74.588595 L 376.6819 80.963595 L 381.3694 80.963595 z M 389.56080599999996 87.76047 L 389.56080599999996 70.57297 L 392.85768099999996 70.57297 L 392.85768099999996 87.76047 L 389.56080599999996 87.76047 z M 395.93189979999994 88.588595 L 399.69752479999994 89.04172 Q 399.79127479999994 89.69797 400.11939979999994 89.94797 Q 400.58814979999994 90.29172 401.60377479999994 90.29172 Q 402.88502479999994 90.29172 403.54127479999994 89.901095 Q 403.96314979999994 89.651095 404.19752479999994 89.07297 Q 404.33814979999994 88.66672 404.33814979999994 87.557345 L 404.33814979999994 85.744845 Q 402.86939979999994 87.76047 400.61939979999994 87.76047 Q 398.10377479999994 87.76047 396.65064979999994 85.63547 Q 395.49439979999994 83.963595 395.49439979999994 81.463595 Q 395.49439979999994 78.338595 396.99439979999994 76.682345 Q 398.51002479999994 75.026095 400.74439979999994 75.026095 Q 403.05689979999994 75.026095 404.55689979999994 77.057345 L 404.55689979999994 75.307345 L 407.63502479999994 75.307345 L 407.63502479999994 86.47922 Q 407.63502479999994 88.682345 407.27564979999994 89.776095 Q 406.91627479999994 90.869845 406.26002479999994 91.47922 Q 405.60377479999994 92.10422 404.49439979999994 92.44797 Q 403.40064979999994 92.807345 401.72877479999994 92.807345 Q 398.57252479999994 92.807345 397.24439979999994 91.72922 Q 395.91627479999994 90.651095 395.91627479999994 88.97922 Q 395.91627479999994 88.82297 395.93189979999994 88.588595 z M 398.86939979999994 81.276095 Q 398.86939979999994 83.26047 399.63502479999994 84.182345 Q 400.40064979999994 85.10422 401.52564979999994 85.10422 Q 402.74439979999994 85.10422 403.57252479999994 84.16672 Q 404.40064979999994 83.213595 404.40064979999994 81.35422 Q 404.40064979999994 79.432345 403.60377479999994 78.494845 Q 402.80689979999994 77.557345 401.58814979999994 77.557345 Q 400.40064979999994 77.557345 399.63502479999994 78.47922 Q 398.86939979999994 79.38547 398.86939979999994 81.276095 z M 410.1389307999999 81.35422 Q 410.1389307999999 79.713595 410.9358057999999 78.182345 Q 411.7483057999999 76.651095 413.2326807999999 75.838595 Q 414.7170557999999 75.026095 416.5451807999999 75.026095 Q 419.3733057999999 75.026095 421.1701807999999 76.869845 Q 422.9826807999999 78.69797 422.9826807999999 81.494845 Q 422.9826807999999 84.32297 421.1545557999999 86.182345 Q 419.3264307999999 88.04172 416.5608057999999 88.04172 Q 414.8576807999999 88.04172 413.2951807999999 87.276095 Q 411.7483057999999 86.494845 410.9358057999999 85.01047 Q 410.1389307999999 83.51047 410.1389307999999 81.35422 z M 413.5139307999999 81.54172 Q 413.5139307999999 83.38547 414.3889307999999 84.369845 Q 415.2639307999999 85.35422 416.5608057999999 85.35422 Q 417.8420557999999 85.35422 418.7170557999999 84.369845 Q 419.5920557999999 83.38547 419.5920557999999 81.51047 Q 419.5920557999999 79.682345 418.7170557999999 78.69797 Q 417.8420557999999 77.713595 416.5608057999999 77.713595 Q 415.2639307999999 77.713595 414.3889307999999 78.69797 Q 413.5139307999999 79.682345 413.5139307999999 81.54172 z M 429.95533679999994 87.76047 L 423.81471179999994 70.57297 L 427.58033679999994 70.57297 L 431.92408679999994 83.29172 L 436.14283679999994 70.57297 L 439.81471179999994 70.57297 L 433.65846179999994 87.76047 L 429.95533679999994 87.76047 z M 441.1233057999999 73.619845 L 441.1233057999999 70.57297 L 444.4201807999999 70.57297 L 444.4201807999999 73.619845 L 441.1233057999999 73.619845 z M 441.1233057999999 87.76047 L 441.1233057999999 75.307345 L 444.4201807999999 75.307345 L 444.4201807999999 87.76047 L 441.1233057999999 87.76047 z M 446.4787745999999 87.76047 L 446.4787745999999 85.19797 L 451.1350245999999 79.838595 Q 452.2912745999999 78.526095 452.8381495999999 77.97922 Q 452.2600245999999 78.01047 451.3225245999999 78.026095 L 446.9318995999999 78.04172 L 446.9318995999999 75.307345 L 457.2131495999999 75.307345 L 457.2131495999999 77.651095 L 452.4631495999999 83.13547 L 450.7912745999999 84.94797 Q 452.1506495999999 84.869845 452.4787745999999 84.869845 L 457.5881495999999 84.869845 L 457.5881495999999 87.76047 L 446.4787745999999 87.76047 z M 470.8068995999999 81.44797 L 474.1818995999999 82.51047 Q 473.4006495999999 85.32297 471.6037745999999 86.69797 Q 469.8068995999999 88.057345 467.0412745999999 88.057345 Q 463.6193995999999 88.057345 461.4162745999999 85.713595 Q 459.2131495999999 83.369845 459.2131495999999 79.32297 Q 459.2131495999999 75.026095 461.4162745999999 72.66672 Q 463.6350245999999 70.29172 467.2443995999999 70.29172 Q 470.4006495999999 70.29172 472.3693995999999 72.151095 Q 473.5412745999999 73.244845 474.1350245999999 75.307345 L 470.6975245999999 76.13547 Q 470.3850245999999 74.79172 469.4162745999999 74.026095 Q 468.4631495999999 73.244845 467.0725245999999 73.244845 Q 465.1662745999999 73.244845 463.9787745999999 74.619845 Q 462.7912745999999 75.994845 462.7912745999999 79.057345 Q 462.7912745999999 82.32297 463.9631495999999 83.713595 Q 465.1350245999999 85.088595 467.0100245999999 85.088595 Q 468.3850245999999 85.088595 469.3850245999999 84.213595 Q 470.3850245999999 83.32297 470.8068995999999 81.44797 z M 476.3733057999999 81.35422 Q 476.3733057999999 79.713595 477.1701807999999 78.182345 Q 477.9826807999999 76.651095 479.4670557999999 75.838595 Q 480.9514307999999 75.026095 482.7795557999999 75.026095 Q 485.6076807999999 75.026095 487.4045557999999 76.869845 Q 489.2170557999999 78.69797 489.2170557999999 81.494845 Q 489.2170557999999 84.32297 487.3889307999999 86.182345 Q 485.5608057999999 88.04172 482.7951807999999 88.04172 Q 481.0920557999999 88.04172 479.5295557999999 87.276095 Q 477.9826807999999 86.494845 477.1701807999999 85.01047 Q 476.3733057999999 83.51047 476.3733057999999 81.35422 z M 479.7483057999999 81.54172 Q 479.7483057999999 83.38547 480.6233057999999 84.369845 Q 481.4983057999999 85.35422 482.7951807999999 85.35422 Q 484.0764307999999 85.35422 484.9514307999999 84.369845 Q 485.8264307999999 83.38547 485.8264307999999 81.51047 Q 485.8264307999999 79.682345 484.9514307999999 78.69797 Q 484.0764307999999 77.713595 482.7951807999999 77.713595 Q 481.4983057999999 77.713595 480.6233057999999 78.69797 Q 479.7483057999999 79.682345 479.7483057999999 81.54172 z M 503.11158679999994 87.76047 L 499.81471179999994 87.76047 L 499.81471179999994 81.401095 Q 499.81471179999994 79.38547 499.59596179999994 78.807345 Q 499.39283679999994 78.213595 498.90846179999994 77.88547 Q 498.43971179999994 77.557345 497.78346179999994 77.557345 Q 496.92408679999994 77.557345 496.23658679999994 78.026095 Q 495.56471179999994 78.494845 495.31471179999994 79.276095 Q 495.06471179999994 80.04172 495.06471179999994 82.119845 L 495.06471179999994 87.76047 L 491.76783679999994 87.76047 L 491.76783679999994 75.307345 L 494.83033679999994 75.307345 L 494.83033679999994 77.13547 Q 496.45533679999994 75.026095 498.92408679999994 75.026095 Q 500.01783679999994 75.026095 500.90846179999994 75.432345 Q 501.81471179999994 75.82297 502.28346179999994 76.432345 Q 502.75221179999994 77.04172 502.92408679999994 77.82297 Q 503.11158679999994 78.588595 503.11158679999994 80.026095 L 503.11158679999994 87.76047 z M 512.1623678 75.307345 L 512.1623678 77.932345 L 509.91236779999997 77.932345 L 509.91236779999997 82.94797 Q 509.91236779999997 84.47922 509.97486779999997 84.72922 Q 510.03736779999997 84.97922 510.25611779999997 85.151095 Q 510.49049279999997 85.307345 510.81861779999997 85.307345 Q 511.27174279999997 85.307345 512.1467428 84.994845 L 512.4279928 87.54172 Q 511.27174279999997 88.04172 509.81861779999997 88.04172 Q 508.92799279999997 88.04172 508.20924279999997 87.744845 Q 507.50611779999997 87.44797 507.16236779999997 86.97922 Q 506.83424279999997 86.494845 506.70924279999997 85.682345 Q 506.59986779999997 85.10422 506.59986779999997 83.369845 L 506.59986779999997 77.932345 L 505.08424279999997 77.932345 L 505.08424279999997 75.307345 L 506.59986779999997 75.307345 L 506.59986779999997 72.838595 L 509.91236779999997 70.91672 L 509.91236779999997 75.307345 L 512.1623678 75.307345 z M 517.5920553 87.76047 L 514.2951803 87.76047 L 514.2951803 75.307345 L 517.3576803 75.307345 L 517.3576803 77.088595 Q 518.1389303 75.82297 518.7639303 75.432345 Q 519.4045553 75.026095 520.2014303 75.026095 Q 521.3264303 75.026095 522.3576803 75.651095 L 521.3420553 78.526095 Q 520.5139303 77.97922 519.7951803 77.97922 Q 519.1076803 77.97922 518.6233053 78.369845 Q 518.1389303 78.744845 517.8576803 79.744845 Q 517.5920553 80.744845 517.5920553 83.91672 L 517.5920553 87.76047 z M 523.0256491 81.35422 Q 523.0256491 79.713595 523.8225241 78.182345 Q 524.6350241 76.651095 526.1193991 75.838595 Q 527.6037741 75.026095 529.4318991 75.026095 Q 532.2600241 75.026095 534.0568991 76.869845 Q 535.8693991 78.69797 535.8693991 81.494845 Q 535.8693991 84.32297 534.0412741 86.182345 Q 532.2131491 88.04172 529.4475241 88.04172 Q 527.7443991 88.04172 526.1818991 87.276095 Q 524.6350241 86.494845 523.8225241 85.01047 Q 523.0256491 83.51047 523.0256491 81.35422 z M 526.4006491 81.54172 Q 526.4006491 83.38547 527.2756491 84.369845 Q 528.1506491 85.35422 529.4475241 85.35422 Q 530.7287741 85.35422 531.6037741 84.369845 Q 532.4787741 83.38547 532.4787741 81.51047 Q 532.4787741 79.682345 531.6037741 78.69797 Q 530.7287741 77.713595 529.4475241 77.713595 Q 528.1506491 77.713595 527.2756491 78.69797 Q 526.4006491 79.682345 526.4006491 81.54172 z M 538.4358051 87.76047 L 538.4358051 70.57297 L 541.7326801 70.57297 L 541.7326801 87.76047 L 538.4358051 87.76047 z" stroke-linecap="round" />
</g>
		<g transform="matrix(1 0 0 1 303.05 -68.24)" clip-path="url(#CLIPPATH_149)"  >
<clipPath id="CLIPPATH_149" >
	<path transform="matrix(1 0 0 1 -303.05 68.23) translate(-445.14, -147.45)" d="M 0 0 L 890.2808 0 L 890.2808 294.90552 L 0 294.90552 L 0 0 z" stroke-linecap="round" />
</clipPath>
<path style="stroke: none; stroke-width: 1; stroke-dasharray: none; stroke-linecap: square; stroke-dashoffset: 0; stroke-linejoin: miter; stroke-miterlimit: 10; fill: rgb(0,0,0); fill-rule: evenodd; opacity: 1;" vector-effect="non-scaling-stroke"  transform=" translate(-748.19, -79.22)" d="M 647.71655 22.905512 L 848.66144 22.905512 L 848.66144 135.53543200000001 L 647.71655 135.53543200000001 z" stroke-linecap="round" />
</g>
		<g transform="matrix(1 0 0 1 303.05 -68.24)" clip-path="url(#CLIPPATH_150)"  >
<clipPath id="CLIPPATH_150" >
	<path transform="matrix(1 0 0 1 -303.05 68.23) translate(-445.14, -147.45)" d="M 0 0 L 890.2808 0 L 890.2808 294.90552 L 0 294.90552 L 0 0 z" stroke-linecap="round" />
</clipPath>
<path style="stroke: rgb(0,0,0); stroke-width: 1; stroke-dasharray: none; stroke-linecap: butt; stroke-dashoffset: 0; stroke-linejoin: round; stroke-miterlimit: 10; fill: none; fill-rule: evenodd; opacity: 1;" vector-effect="non-scaling-stroke"  transform=" translate(-748.19, -79.22)" d="M 647.71655 22.905512 L 848.66144 22.905512 L 848.66144 135.53543200000001 L 647.71655 135.53543200000001 z" stroke-linecap="round" />
</g>
		<g transform="matrix(1 0 0 1 302.18 -65.31)" clip-path="url(#CLIPPATH_151)"  >
<clipPath id="CLIPPATH_151" >
	<path transform="matrix(1 0 0 1 -302.18 65.31) translate(-445.14, -147.45)" d="M 0 0 L 890.2808 0 L 890.2808 294.90552 L 0 294.90552 L 0 0 z" stroke-linecap="round" />
</clipPath>
<path style="stroke: none; stroke-width: 1; stroke-dasharray: none; stroke-linecap: square; stroke-dashoffset: 0; stroke-linejoin: miter; stroke-miterlimit: 10; fill: rgb(255,255,255); fill-rule: nonzero; opacity: 1;" vector-effect="non-scaling-stroke"  transform=" translate(-747.32, -82.14)" d="M 683.59015 88.540474 L 679.605775 88.540474 L 678.02765 84.415474 L 670.77765 84.415474 L 669.293275 88.540474 L 665.40265 88.540474 L 672.46515 70.415474 L 676.34015 70.415474 L 683.59015 88.540474 z M 676.855775 81.368599 L 674.355775 74.634224 L 671.90265 81.368599 L 676.855775 81.368599 z M 685.506288 88.540474 L 685.506288 70.415474 L 688.990663 70.415474 L 688.990663 88.540474 L 685.506288 88.540474 z M 692.2307753 89.399849 L 696.1995253 89.884224 Q 696.2932753 90.587349 696.6526503 90.837349 Q 697.1526503 91.212349 698.2151503 91.212349 Q 699.5745253 91.212349 700.2464003 90.806099 Q 700.7151503 90.524849 700.9495253 89.931099 Q 701.1057753 89.493599 701.1057753 88.337349 L 701.1057753 86.415474 Q 699.5432753 88.540474 697.1682753 88.540474 Q 694.5276503 88.540474 692.9807753 86.306099 Q 691.7620253 84.540474 691.7620253 81.899849 Q 691.7620253 78.602974 693.3557753 76.852974 Q 694.9495253 75.102974 697.3089003 75.102974 Q 699.7464003 75.102974 701.3245253 77.243599 L 701.3245253 75.399849 L 704.5745253 75.399849 L 704.5745253 87.196724 Q 704.5745253 89.524849 704.1839003 90.665474 Q 703.8089003 91.821724 703.1214003 92.477974 Q 702.4339003 93.134224 701.2776503 93.493599 Q 700.1214003 93.868599 698.3557753 93.868599 Q 695.0120253 93.868599 693.6057753 92.727974 Q 692.2151503 91.587349 692.2151503 89.821724 Q 692.2151503 89.649849 692.2307753 89.399849 z M 695.3245253 81.696724 Q 695.3245253 83.790474 696.1370253 84.759224 Q 696.9495253 85.727974 698.1370253 85.727974 Q 699.4182753 85.727974 700.2932753 84.743599 Q 701.1682753 83.743599 701.1682753 81.790474 Q 701.1682753 79.743599 700.3245253 78.759224 Q 699.4807753 77.774849 698.1995253 77.774849 Q 696.9495253 77.774849 696.1370253 78.743599 Q 695.3245253 79.712349 695.3245253 81.696724 z M 707.2178363 81.790474 Q 707.2178363 80.056099 708.0615863 78.446724 Q 708.9209613 76.821724 710.4834613 75.962349 Q 712.0459613 75.102974 713.9834613 75.102974 Q 716.9678363 75.102974 718.8584613 77.040474 Q 720.7647113 78.977974 720.7647113 81.931099 Q 720.7647113 84.915474 718.8428363 86.884224 Q 716.9209613 88.837349 713.9990863 88.837349 Q 712.2022113 88.837349 710.5615863 88.024849 Q 708.9209613 87.212349 708.0615863 85.634224 Q 707.2178363 84.056099 707.2178363 81.790474 z M 710.7803363 81.977974 Q 710.7803363 83.931099 711.7022113 84.977974 Q 712.6397113 86.009224 713.9990863 86.009224 Q 715.3584613 86.009224 716.2803363 84.977974 Q 717.2022113 83.931099 717.2022113 81.946724 Q 717.2022113 80.024849 716.2803363 78.993599 Q 715.3584613 77.946724 713.9990863 77.946724 Q 712.6397113 77.946724 711.7022113 78.993599 Q 710.7803363 80.024849 710.7803363 81.977974 z M 728.1423963000001 88.540474 L 721.6580213000001 70.415474 L 725.6267713000001 70.415474 L 730.2205213000001 83.821724 L 734.6580213000001 70.415474 L 738.5486463000001 70.415474 L 732.0486463000001 88.540474 L 728.1423963000001 88.540474 z M 739.9221203000001 73.618599 L 739.9221203000001 70.415474 L 743.4064953000001 70.415474 L 743.4064953000001 73.618599 L 739.9221203000001 73.618599 z M 739.9221203000001 88.540474 L 739.9221203000001 75.399849 L 743.4064953000001 75.399849 L 743.4064953000001 88.540474 L 739.9221203000001 88.540474 z M 745.5684826 88.540474 L 745.5684826 85.837349 L 750.4903576 80.181099 Q 751.6934826 78.790474 752.2872326 78.212349 Q 751.6778576 78.243599 750.6934826 78.259224 L 746.0528576 78.290474 L 746.0528576 75.399849 L 756.9122326 75.399849 L 756.9122326 77.868599 L 751.8809826 83.649849 L 750.1153576 85.571724 Q 751.5684826 85.477974 751.9122326 85.477974 L 757.2872326 85.477974 L 757.2872326 88.540474 L 745.5684826 88.540474 z M 759.6075451 88.540474 L 759.6075451 70.415474 L 765.0762951 70.415474 L 768.3731701 82.774849 L 771.6231701 70.415474 L 777.1231701 70.415474 L 777.1231701 88.540474 L 773.7169201 88.540474 L 773.7169201 74.274849 L 770.1231701 88.540474 L 766.5919201 88.540474 L 762.9981701 74.274849 L 762.9981701 88.540474 L 759.6075451 88.540474 z M 779.9248051000001 81.790474 Q 779.9248051000001 80.056099 780.7685551000001 78.446724 Q 781.6279301000001 76.821724 783.1904301000001 75.962349 Q 784.7529301000001 75.102974 786.6904301000001 75.102974 Q 789.6748051000001 75.102974 791.5654301000001 77.040474 Q 793.4716801000001 78.977974 793.4716801000001 81.931099 Q 793.4716801000001 84.915474 791.5498051000001 86.884224 Q 789.6279301000001 88.837349 786.7060551000001 88.837349 Q 784.9091801000001 88.837349 783.2685551000001 88.024849 Q 781.6279301000001 87.212349 780.7685551000001 85.634224 Q 779.9248051000001 84.056099 779.9248051000001 81.790474 z M 783.4873051000001 81.977974 Q 783.4873051000001 83.931099 784.4091801000001 84.977974 Q 785.3466801000001 86.009224 786.7060551000001 86.009224 Q 788.0654301000001 86.009224 788.9873051000001 84.977974 Q 789.9091801000001 83.931099 789.9091801000001 81.946724 Q 789.9091801000001 80.024849 788.9873051000001 78.993599 Q 788.0654301000001 77.946724 786.7060551000001 77.946724 Q 785.3466801000001 77.946724 784.4091801000001 78.993599 Q 783.4873051000001 80.024849 783.4873051000001 81.977974 z M 808.2399911000001 88.540474 L 805.0212411000001 88.540474 L 805.0212411000001 86.618599 Q 804.2087411000001 87.743599 803.1149911000001 88.290474 Q 802.0212411000001 88.837349 800.9118661000001 88.837349 Q 798.6462411000001 88.837349 797.0212411000001 87.024849 Q 795.4118661000001 85.196724 795.4118661000001 81.931099 Q 795.4118661000001 78.587349 796.9899911000001 76.852974 Q 798.5681161000001 75.102974 800.9587411000001 75.102974 Q 803.1618661000001 75.102974 804.7712411000001 76.946724 L 804.7712411000001 70.415474 L 808.2399911000001 70.415474 L 808.2399911000001 88.540474 z M 798.9743661000001 81.696724 Q 798.9743661000001 83.790474 799.5524911000001 84.727974 Q 800.3962411000001 86.087349 801.8962411000001 86.087349 Q 803.0993661000001 86.087349 803.9431161000001 85.071724 Q 804.7868661000001 84.056099 804.7868661000001 82.024849 Q 804.7868661000001 79.759224 803.9587411000001 78.774849 Q 803.1462411000001 77.774849 801.8806161000001 77.774849 Q 800.6462411000001 77.774849 799.8024911000001 78.759224 Q 798.9743661000001 79.727974 798.9743661000001 81.696724 z M 819.2739261000002 84.352974 L 822.7426761000002 84.946724 Q 822.0708011000002 86.852974 820.6333011000002 87.852974 Q 819.1958011000002 88.837349 817.0239261000002 88.837349 Q 813.6020511000002 88.837349 811.9614261000002 86.602974 Q 810.6489261000002 84.806099 810.6489261000002 82.071724 Q 810.6489261000002 78.806099 812.3520511000002 76.962349 Q 814.0708011000002 75.102974 816.6801761000002 75.102974 Q 819.6020511000002 75.102974 821.2895511000002 77.040474 Q 822.9926761000002 78.977974 822.9301761000002 82.977974 L 814.2114261000002 82.977974 Q 814.2583011000002 84.524849 815.0551761000002 85.384224 Q 815.8676761000002 86.243599 817.0551761000002 86.243599 Q 817.8833011000002 86.243599 818.4301761000002 85.806099 Q 818.9926761000002 85.352974 819.2739261000002 84.352974 z M 819.4770511000002 80.852974 Q 819.4301761000002 79.337349 818.6801761000002 78.556099 Q 817.9458011000002 77.774849 816.8833011000002 77.774849 Q 815.7583011000002 77.774849 815.0083011000002 78.602974 Q 814.2739261000002 79.431099 814.2739261000002 80.852974 L 819.4770511000002 80.852974 z M 825.7508548000002 88.540474 L 825.7508548000002 70.415474 L 829.2352298000002 70.415474 L 829.2352298000002 88.540474 L 825.7508548000002 88.540474 z" stroke-linecap="round" />
</g>
		<g transform="matrix(1 0 0 1 -133.81 -88.02)" clip-path="url(#CLIPPATH_152)"  >
<clipPath id="CLIPPATH_152" >
	<path transform="matrix(1 0 0 1 133.81 88.02) translate(-445.14, -147.45)" d="M 0 0 L 890.2808 0 L 890.2808 294.90552 L 0 294.90552 L 0 0 z" stroke-linecap="round" />
</clipPath>
<path style="stroke: none; stroke-width: 1; stroke-dasharray: none; stroke-linecap: square; stroke-dashoffset: 0; stroke-linejoin: miter; stroke-miterlimit: 10; fill: rgb(0,0,0); fill-opacity: 0; fill-rule: evenodd; opacity: 1;" vector-effect="non-scaling-stroke"  transform=" translate(-311.33, -59.43)" d="M 266.17847 59.430447 L 356.47769500000004 59.430447" stroke-linecap="round" />
</g>
		<g transform="matrix(1 0 0 1 -136.81 -88.02)" clip-path="url(#CLIPPATH_153)"  >
<clipPath id="CLIPPATH_153" >
	<path transform="matrix(1 0 0 1 136.81 88.02) translate(-445.14, -147.45)" d="M 0 0 L 890.2808 0 L 890.2808 294.90552 L 0 294.90552 L 0 0 z" stroke-linecap="round" />
</clipPath>
<path style="stroke: rgb(0,0,0); stroke-width: 1; stroke-dasharray: none; stroke-linecap: butt; stroke-dashoffset: 0; stroke-linejoin: round; stroke-miterlimit: 10; fill: none; fill-rule: evenodd; opacity: 1;" vector-effect="non-scaling-stroke"  transform=" translate(-308.33, -59.43)" d="M 266.17847 59.430447 L 350.47769500000004 59.430447" stroke-linecap="round" />
</g>
		<g transform="matrix(1 0 0 1 -92.39 -88.02)" clip-path="url(#CLIPPATH_154)"  >
<clipPath id="CLIPPATH_154" >
	<path transform="matrix(1 0 0 1 92.39 88.02) translate(-445.14, -147.45)" d="M 0 0 L 890.2808 0 L 890.2808 294.90552 L 0 294.90552 L 0 0 z" stroke-linecap="round" />
</clipPath>
<path style="stroke: rgb(0,0,0); stroke-width: 1; stroke-dasharray: none; stroke-linecap: butt; stroke-dashoffset: 0; stroke-linejoin: miter; stroke-miterlimit: 10; fill: rgb(0,0,0); fill-rule: evenodd; opacity: 1;" vector-effect="non-scaling-stroke"  transform=" translate(-352.75, -59.43)" d="M 350.4777 61.08218 L 355.01578600000005 59.4304466 L 350.4777 57.778713200000006 z" stroke-linecap="round" />
</g>
		<g transform="matrix(1 0 0 1 -133.81 -37.79)" clip-path="url(#CLIPPATH_155)"  >
<clipPath id="CLIPPATH_155" >
	<path transform="matrix(1 0 0 1 133.81 37.79) translate(-445.14, -147.45)" d="M 0 0 L 890.2808 0 L 890.2808 294.90552 L 0 294.90552 L 0 0 z" stroke-linecap="round" />
</clipPath>
<path style="stroke: none; stroke-width: 1; stroke-dasharray: none; stroke-linecap: square; stroke-dashoffset: 0; stroke-linejoin: miter; stroke-miterlimit: 10; fill: rgb(0,0,0); fill-opacity: 0; fill-rule: evenodd; opacity: 1;" vector-effect="non-scaling-stroke"  transform=" translate(-311.33, -109.66)" d="M 356.4777 109.66404 L 266.17847500000005 109.66404" stroke-linecap="round" />
</g>
		<g transform="matrix(1 0 0 1 -130.81 -37.79)" clip-path="url(#CLIPPATH_156)"  >
<clipPath id="CLIPPATH_156" >
	<path transform="matrix(1 0 0 1 130.81 37.79) translate(-445.14, -147.45)" d="M 0 0 L 890.2808 0 L 890.2808 294.90552 L 0 294.90552 L 0 0 z" stroke-linecap="round" />
</clipPath>
<path style="stroke: rgb(0,0,0); stroke-width: 1; stroke-dasharray: none; stroke-linecap: butt; stroke-dashoffset: 0; stroke-linejoin: round; stroke-miterlimit: 10; fill: none; fill-rule: evenodd; opacity: 1;" vector-effect="non-scaling-stroke"  transform=" translate(-314.33, -109.66)" d="M 356.4777 109.66404 L 272.17847500000005 109.66404" stroke-linecap="round" />
</g>
		<g transform="matrix(1 0 0 1 -175.23 -37.79)" clip-path="url(#CLIPPATH_157)"  >
<clipPath id="CLIPPATH_157" >
	<path transform="matrix(1 0 0 1 175.23 37.79) translate(-445.14, -147.45)" d="M 0 0 L 890.2808 0 L 890.2808 294.90552 L 0 294.90552 L 0 0 z" stroke-linecap="round" />
</clipPath>
<path style="stroke: rgb(0,0,0); stroke-width: 1; stroke-dasharray: none; stroke-linecap: butt; stroke-dashoffset: 0; stroke-linejoin: miter; stroke-miterlimit: 10; fill: rgb(0,0,0); fill-rule: evenodd; opacity: 1;" vector-effect="non-scaling-stroke"  transform=" translate(-269.91, -109.66)" d="M 272.17847 108.01231 L 267.640384 109.6640434 L 272.17847 111.3157768 z" stroke-linecap="round" />
</g>
		<g transform="matrix(1 0 0 1 157.43 -88.02)" clip-path="url(#CLIPPATH_158)"  >
<clipPath id="CLIPPATH_158" >
	<path transform="matrix(1 0 0 1 -157.43 88.02) translate(-445.14, -147.45)" d="M 0 0 L 890.2808 0 L 890.2808 294.90552 L 0 294.90552 L 0 0 z" stroke-linecap="round" />
</clipPath>
<path style="stroke: none; stroke-width: 1; stroke-dasharray: none; stroke-linecap: square; stroke-dashoffset: 0; stroke-linejoin: miter; stroke-miterlimit: 10; fill: rgb(0,0,0); fill-opacity: 0; fill-rule: evenodd; opacity: 1;" vector-effect="non-scaling-stroke"  transform=" translate(-602.57, -59.43)" d="M 557.4199 59.429134 L 647.719155 59.429134" stroke-linecap="round" />
</g>
		<g transform="matrix(1 0 0 1 154.43 -88.02)" clip-path="url(#CLIPPATH_159)"  >
<clipPath id="CLIPPATH_159" >
	<path transform="matrix(1 0 0 1 -154.43 88.02) translate(-445.14, -147.45)" d="M 0 0 L 890.2808 0 L 890.2808 294.90552 L 0 294.90552 L 0 0 z" stroke-linecap="round" />
</clipPath>
<path style="stroke: rgb(0,0,0); stroke-width: 1; stroke-dasharray: none; stroke-linecap: butt; stroke-dashoffset: 0; stroke-linejoin: round; stroke-miterlimit: 10; fill: none; fill-rule: evenodd; opacity: 1;" vector-effect="non-scaling-stroke"  transform=" translate(-599.57, -59.43)" d="M 557.4199 59.429134 L 641.719155 59.429134" stroke-linecap="round" />
</g>
		<g transform="matrix(1 0 0 1 198.85 -88.03)" clip-path="url(#CLIPPATH_160)"  >
<clipPath id="CLIPPATH_160" >
	<path transform="matrix(1 0 0 1 -198.85 88.02) translate(-445.14, -147.45)" d="M 0 0 L 890.2808 0 L 890.2808 294.90552 L 0 294.90552 L 0 0 z" stroke-linecap="round" />
</clipPath>
<path style="stroke: rgb(0,0,0); stroke-width: 1; stroke-dasharray: none; stroke-linecap: butt; stroke-dashoffset: 0; stroke-linejoin: miter; stroke-miterlimit: 10; fill: rgb(0,0,0); fill-rule: evenodd; opacity: 1;" vector-effect="non-scaling-stroke"  transform=" translate(-643.99, -59.43)" d="M 641.7192 61.080868 L 646.257286 59.429134600000005 L 641.7192 57.77740120000001 z" stroke-linecap="round" />
</g>
		<g transform="matrix(1 0 0 1 157.43 -37.79)" clip-path="url(#CLIPPATH_161)"  >
<clipPath id="CLIPPATH_161" >
	<path transform="matrix(1 0 0 1 -157.43 37.79) translate(-445.14, -147.45)" d="M 0 0 L 890.2808 0 L 890.2808 294.90552 L 0 294.90552 L 0 0 z" stroke-linecap="round" />
</clipPath>
<path style="stroke: none; stroke-width: 1; stroke-dasharray: none; stroke-linecap: square; stroke-dashoffset: 0; stroke-linejoin: miter; stroke-miterlimit: 10; fill: rgb(0,0,0); fill-opacity: 0; fill-rule: evenodd; opacity: 1;" vector-effect="non-scaling-stroke"  transform=" translate(-602.57, -109.66)" d="M 647.7192 109.66273 L 557.419945 109.66273" stroke-linecap="round" />
</g>
		<g transform="matrix(1 0 0 1 160.43 -37.79)" clip-path="url(#CLIPPATH_162)"  >
<clipPath id="CLIPPATH_162" >
	<path transform="matrix(1 0 0 1 -160.43 37.79) translate(-445.14, -147.45)" d="M 0 0 L 890.2808 0 L 890.2808 294.90552 L 0 294.90552 L 0 0 z" stroke-linecap="round" />
</clipPath>
<path style="stroke: rgb(0,0,0); stroke-width: 1; stroke-dasharray: none; stroke-linecap: butt; stroke-dashoffset: 0; stroke-linejoin: round; stroke-miterlimit: 10; fill: none; fill-rule: evenodd; opacity: 1;" vector-effect="non-scaling-stroke"  transform=" translate(-605.57, -109.66)" d="M 647.7192 109.66273 L 563.419945 109.66273" stroke-linecap="round" />
</g>
		<g transform="matrix(1 0 0 1 116.01 -37.79)" clip-path="url(#CLIPPATH_163)"  >
<clipPath id="CLIPPATH_163" >
	<path transform="matrix(1 0 0 1 -116.01 37.79) translate(-445.14, -147.45)" d="M 0 0 L 890.2808 0 L 890.2808 294.90552 L 0 294.90552 L 0 0 z" stroke-linecap="round" />
</clipPath>
<path style="stroke: rgb(0,0,0); stroke-width: 1; stroke-dasharray: none; stroke-linecap: butt; stroke-dashoffset: 0; stroke-linejoin: miter; stroke-miterlimit: 10; fill: rgb(0,0,0); fill-rule: evenodd; opacity: 1;" vector-effect="non-scaling-stroke"  transform=" translate(-561.15, -109.66)" d="M 563.4199 108.010994 L 558.881814 109.6627274 L 563.4199 111.31446079999999 z" stroke-linecap="round" />
</g>
		<g transform="matrix(1 0 0 1 -133.81 -86.15)" clip-path="url(#CLIPPATH_164)"  >
<clipPath id="CLIPPATH_164" >
	<path transform="matrix(1 0 0 1 133.81 86.14) translate(-445.14, -147.45)" d="M 0 0 L 890.2808 0 L 890.2808 294.90552 L 0 294.90552 L 0 0 z" stroke-linecap="round" />
</clipPath>
<path style="stroke: none; stroke-width: 1; stroke-dasharray: none; stroke-linecap: square; stroke-dashoffset: 0; stroke-linejoin: miter; stroke-miterlimit: 10; fill: rgb(0,0,0); fill-opacity: 0; fill-rule: evenodd; opacity: 1;" vector-effect="non-scaling-stroke"  transform=" translate(-311.33, -61.31)" d="M 266.17847 28.994751 L 356.47769500000004 28.994751 L 356.47769500000004 93.624671 L 266.17847000000006 93.624671 z" stroke-linecap="round" />
</g>
		<g transform="matrix(1 0 0 1 -148.43 -98.21)" clip-path="url(#CLIPPATH_165)"  >
<clipPath id="CLIPPATH_165" >
	<path transform="matrix(1 0 0 1 148.43 98.21) translate(-445.14, -147.45)" d="M 0 0 L 890.2808 0 L 890.2808 294.90552 L 0 294.90552 L 0 0 z" stroke-linecap="round" />
</clipPath>
<path style="stroke: none; stroke-width: 1; stroke-dasharray: none; stroke-linecap: square; stroke-dashoffset: 0; stroke-linejoin: miter; stroke-miterlimit: 10; fill: rgb(255,255,255); fill-rule: nonzero; opacity: 1;" vector-effect="non-scaling-stroke"  transform=" translate(-296.71, -49.24)" d="M 276.02222 51.617874 L 277.67847 51.477249 Q 277.80347 52.477249 278.225345 53.117874 Q 278.662845 53.758499 279.569095 54.164749 Q 280.49097 54.555374 281.631595 54.555374 Q 282.631595 54.555374 283.412845 54.258499 Q 284.194095 53.961624 284.569095 53.445999 Q 284.944095 52.914749 284.944095 52.289749 Q 284.944095 51.664749 284.569095 51.195999 Q 284.20972 50.727249 283.381595 50.399124 Q 282.83472 50.195999 280.99097 49.758499 Q 279.162845 49.305374 278.42847 48.914749 Q 277.45972 48.414749 276.99097 47.680374 Q 276.52222 46.930374 276.52222 46.008499 Q 276.52222 45.008499 277.100345 44.133499 Q 277.67847 43.242874 278.77222 42.789749 Q 279.881595 42.336624 281.225345 42.336624 Q 282.70972 42.336624 283.83472 42.820999 Q 284.975345 43.289749 285.58472 44.227249 Q 286.194095 45.149124 286.24097 46.320999 L 284.55347 46.445999 Q 284.412845 45.180374 283.61597 44.539749 Q 282.83472 43.883499 281.30347 43.883499 Q 279.694095 43.883499 278.95972 44.477249 Q 278.225345 45.070999 278.225345 45.899124 Q 278.225345 46.617874 278.756595 47.070999 Q 279.256595 47.539749 281.412845 48.039749 Q 283.569095 48.524124 284.36597 48.883499 Q 285.537845 49.414749 286.08472 50.242874 Q 286.64722 51.070999 286.64722 52.149124 Q 286.64722 53.211624 286.037845 54.164749 Q 285.42847 55.102249 284.287845 55.633499 Q 283.14722 56.149124 281.70972 56.149124 Q 279.89722 56.149124 278.662845 55.617874 Q 277.444095 55.086624 276.74097 54.024124 Q 276.05347 52.961624 276.02222 51.617874 z M 295.481418 52.805374 L 297.168918 53.008499 Q 296.762668 54.492874 295.684543 55.320999 Q 294.606418 56.133499 292.918918 56.133499 Q 290.793918 56.133499 289.543918 54.836624 Q 288.309543 53.524124 288.309543 51.164749 Q 288.309543 48.711624 289.559543 47.367874 Q 290.825168 46.024124 292.825168 46.024124 Q 294.762668 46.024124 295.981418 47.352249 Q 297.215793 48.664749 297.215793 51.055374 Q 297.215793 51.211624 297.215793 51.492874 L 289.997043 51.492874 Q 290.090793 53.086624 290.903293 53.945999 Q 291.715793 54.789749 292.918918 54.789749 Q 293.825168 54.789749 294.465793 54.320999 Q 295.106418 53.836624 295.481418 52.805374 z M 290.090793 50.149124 L 295.497043 50.149124 Q 295.387668 48.930374 294.872043 48.320999 Q 294.090793 47.367874 292.840793 47.367874 Q 291.715793 47.367874 290.934543 48.133499 Q 290.168918 48.883499 290.090793 50.149124 z M 299.23215000000005 55.914749 L 299.23215000000005 46.242874 L 300.70090000000005 46.242874 L 300.70090000000005 47.617874 Q 301.76340000000005 46.024124 303.77902500000005 46.024124 Q 304.65402500000005 46.024124 305.38840000000005 46.336624 Q 306.12277500000005 46.649124 306.48215000000005 47.164749 Q 306.85715000000005 47.664749 306.99777500000005 48.367874 Q 307.09152500000005 48.820999 307.09152500000005 49.961624 L 307.09152500000005 55.914749 L 305.45090000000005 55.914749 L 305.45090000000005 50.024124 Q 305.45090000000005 49.024124 305.24777500000005 48.539749 Q 305.06027500000005 48.039749 304.57590000000005 47.742874 Q 304.09152500000005 47.445999 303.43527500000005 47.445999 Q 302.38840000000005 47.445999 301.62277500000005 48.117874 Q 300.87277500000005 48.774124 300.87277500000005 50.633499 L 300.87277500000005 55.914749 L 299.23215000000005 55.914749 z M 315.87347700000004 55.914749 L 315.87347700000004 54.695999 Q 314.96722700000004 56.133499 313.17035200000004 56.133499 Q 312.01410200000004 56.133499 311.04535200000004 55.492874 Q 310.07660200000004 54.852249 309.54535200000004 53.711624 Q 309.01410200000004 52.570999 309.01410200000004 51.086624 Q 309.01410200000004 49.633499 309.49847700000004 48.461624 Q 309.98285200000004 47.274124 310.93597700000004 46.649124 Q 311.90472700000004 46.024124 313.10785200000004 46.024124 Q 313.98285200000004 46.024124 314.65472700000004 46.399124 Q 315.34222700000004 46.758499 315.76410200000004 47.352249 L 315.76410200000004 42.555374 L 317.40472700000004 42.555374 L 317.40472700000004 55.914749 L 315.87347700000004 55.914749 z M 310.70160200000004 51.086624 Q 310.70160200000004 52.945999 311.48285200000004 53.867874 Q 312.26410200000004 54.789749 313.32660200000004 54.789749 Q 314.40472700000004 54.789749 315.15472700000004 53.914749 Q 315.90472700000004 53.024124 315.90472700000004 51.227249 Q 315.90472700000004 49.242874 315.13910200000004 48.320999 Q 314.37347700000004 47.383499 313.24847700000004 47.383499 Q 312.17035200000004 47.383499 311.43597700000004 48.274124 Q 310.70160200000004 49.164749 310.70160200000004 51.086624 z" stroke-linecap="round" />
</g>
		<g transform="matrix(1 0 0 1 -140.99 -73.86)" clip-path="url(#CLIPPATH_166)"  >
<clipPath id="CLIPPATH_166" >
	<path transform="matrix(1 0 0 1 141 73.85) translate(-445.14, -147.45)" d="M 0 0 L 890.2808 0 L 890.2808 294.90552 L 0 294.90552 L 0 0 z" stroke-linecap="round" />
</clipPath>
<path style="stroke: none; stroke-width: 1; stroke-dasharray: none; stroke-linecap: square; stroke-dashoffset: 0; stroke-linejoin: miter; stroke-miterlimit: 10; fill: rgb(255,255,255); fill-rule: nonzero; opacity: 1;" vector-effect="non-scaling-stroke"  transform=" translate(-304.14, -73.6)" d="M 275.7566 75.42412 L 277.3816 75.17412 Q 277.5066 76.14287 278.1316 76.67412 Q 278.7566 77.189745 279.8816 77.189745 Q 281.0066 77.189745 281.553475 76.73662 Q 282.10035 76.26787 282.10035 75.64287 Q 282.10035 75.095995 281.615975 74.76787 Q 281.28785 74.54912 279.9441 74.220995 Q 278.1316 73.752245 277.428475 73.42412 Q 276.740975 73.095995 276.3816 72.51787 Q 276.022225 71.92412 276.022225 71.20537 Q 276.022225 70.564745 276.3191 70.01787 Q 276.615975 69.45537 277.1316 69.095995 Q 277.5066 68.814745 278.16285 68.627245 Q 278.834725 68.42412 279.584725 68.42412 Q 280.72535 68.42412 281.584725 68.752245 Q 282.4441 69.08037 282.85035 69.64287 Q 283.272225 70.20537 283.428475 71.14287 L 281.8191 71.36162 Q 281.709725 70.61162 281.178475 70.189745 Q 280.66285 69.76787 279.709725 69.76787 Q 278.5691 69.76787 278.084725 70.14287 Q 277.615975 70.51787 277.615975 71.01787 Q 277.615975 71.33037 277.803475 71.595995 Q 278.0066 71.86162 278.4441 72.033495 Q 278.678475 72.127245 279.8816 72.45537 Q 281.6316 72.908495 282.3191 73.20537 Q 283.0066 73.502245 283.397225 74.064745 Q 283.78785 74.627245 283.78785 75.470995 Q 283.78785 76.29912 283.303475 77.01787 Q 282.834725 77.73662 281.928475 78.14287 Q 281.022225 78.533495 279.8816 78.533495 Q 278.0066 78.533495 277.0066 77.752245 Q 276.022225 76.970995 275.7566 75.42412 z M 285.740975 66.845995 L 285.740975 64.95537 L 287.3816 64.95537 L 287.3816 66.845995 L 285.740975 66.845995 z M 285.740975 78.314745 L 285.740975 68.64287 L 287.3816 68.64287 L 287.3816 78.314745 L 285.740975 78.314745 z M 289.57331139999997 79.11162 L 291.16706139999997 79.345995 Q 291.27643639999997 80.095995 291.72956139999997 80.42412 Q 292.33893639999997 80.877245 293.40143639999997 80.877245 Q 294.54206139999997 80.877245 295.15143639999997 80.42412 Q 295.77643639999997 79.970995 295.99518639999997 79.158495 Q 296.12018639999997 78.658495 296.10456139999997 77.04912 Q 295.04206139999997 78.314745 293.43268639999997 78.314745 Q 291.43268639999997 78.314745 290.33893639999997 76.877245 Q 289.24518639999997 75.439745 289.24518639999997 73.42412 Q 289.24518639999997 72.033495 289.74518639999997 70.86162 Q 290.26081139999997 69.689745 291.19831139999997 69.064745 Q 292.15143639999997 68.42412 293.44831139999997 68.42412 Q 295.15143639999997 68.42412 296.26081139999997 69.79912 L 296.26081139999997 68.64287 L 297.77643639999997 68.64287 L 297.77643639999997 77.002245 Q 297.77643639999997 79.26787 297.30768639999997 80.20537 Q 296.85456139999997 81.14287 295.85456139999997 81.689745 Q 294.87018639999997 82.23662 293.40143639999997 82.23662 Q 291.68268639999997 82.23662 290.60456139999997 81.45537 Q 289.54206139999997 80.689745 289.57331139999997 79.11162 z M 290.93268639999997 73.29912 Q 290.93268639999997 75.20537 291.68268639999997 76.08037 Q 292.44831139999997 76.95537 293.58893639999997 76.95537 Q 294.71393639999997 76.95537 295.47956139999997 76.095995 Q 296.24518639999997 75.220995 296.24518639999997 73.36162 Q 296.24518639999997 71.58037 295.44831139999997 70.689745 Q 294.66706139999997 69.783495 293.55768639999997 69.783495 Q 292.46393639999997 69.783495 291.69831139999997 70.67412 Q 290.93268639999997 71.54912 290.93268639999997 73.29912 z M 300.26151339999996 78.314745 L 300.26151339999996 68.64287 L 301.73026339999996 68.64287 L 301.73026339999996 70.01787 Q 302.79276339999996 68.42412 304.80838839999996 68.42412 Q 305.68338839999996 68.42412 306.41776339999996 68.73662 Q 307.15213839999996 69.04912 307.51151339999996 69.564745 Q 307.88651339999996 70.064745 308.02713839999996 70.76787 Q 308.12088839999996 71.220995 308.12088839999996 72.36162 L 308.12088839999996 78.314745 L 306.48026339999996 78.314745 L 306.48026339999996 72.42412 Q 306.48026339999996 71.42412 306.27713839999996 70.939745 Q 306.08963839999996 70.439745 305.60526339999996 70.14287 Q 305.12088839999996 69.845995 304.46463839999996 69.845995 Q 303.41776339999996 69.845995 302.65213839999996 70.51787 Q 301.90213839999996 71.17412 301.90213839999996 73.033495 L 301.90213839999996 78.314745 L 300.26151339999996 78.314745 z M 316.9497454 77.127245 Q 316.0278704 77.89287 315.1841204 78.220995 Q 314.3559954 78.533495 313.3872454 78.533495 Q 311.7934954 78.533495 310.9341204 77.752245 Q 310.0747454 76.970995 310.0747454 75.76787 Q 310.0747454 75.04912 310.4028704 74.470995 Q 310.7309954 73.877245 311.2466204 73.533495 Q 311.7778704 73.17412 312.4341204 72.98662 Q 312.9028704 72.86162 313.8872454 72.73662 Q 315.8716204 72.502245 316.8091204 72.17412 Q 316.8247454 71.83037 316.8247454 71.752245 Q 316.8247454 70.752245 316.3559954 70.33037 Q 315.7309954 69.783495 314.4809954 69.783495 Q 313.3247454 69.783495 312.7778704 70.189745 Q 312.2309954 70.595995 311.9653704 71.61162 L 310.3559954 71.39287 Q 310.5747454 70.377245 311.0747454 69.752245 Q 311.5747454 69.11162 312.5278704 68.76787 Q 313.4809954 68.42412 314.7153704 68.42412 Q 315.9653704 68.42412 316.7309954 68.720995 Q 317.5122454 69.002245 317.8716204 69.45537 Q 318.2466204 69.89287 318.3872454 70.564745 Q 318.4653704 70.98662 318.4653704 72.08037 L 318.4653704 74.26787 Q 318.4653704 76.54912 318.5747454 77.158495 Q 318.6841204 77.752245 318.9809954 78.314745 L 317.2778704 78.314745 Q 317.0122454 77.79912 316.9497454 77.127245 z M 316.8091204 73.45537 Q 315.9184954 73.83037 314.1372454 74.08037 Q 313.1216204 74.220995 312.6997454 74.408495 Q 312.2778704 74.595995 312.0434954 74.939745 Q 311.8247454 75.283495 311.8247454 75.720995 Q 311.8247454 76.377245 312.3247454 76.814745 Q 312.8247454 77.252245 313.7778704 77.252245 Q 314.7153704 77.252245 315.4497454 76.845995 Q 316.1997454 76.42412 316.5434954 75.70537 Q 316.8091204 75.14287 316.8091204 74.064745 L 316.8091204 73.45537 z M 320.9660724 78.314745 L 320.9660724 64.95537 L 322.6066974 64.95537 L 322.6066974 78.314745 L 320.9660724 78.314745 z M 324.50153379999995 75.42412 L 326.12653379999995 75.17412 Q 326.25153379999995 76.14287 326.87653379999995 76.67412 Q 327.50153379999995 77.189745 328.62653379999995 77.189745 Q 329.75153379999995 77.189745 330.29840879999995 76.73662 Q 330.84528379999995 76.26787 330.84528379999995 75.64287 Q 330.84528379999995 75.095995 330.36090879999995 74.76787 Q 330.03278379999995 74.54912 328.68903379999995 74.220995 Q 326.87653379999995 73.752245 326.17340879999995 73.42412 Q 325.48590879999995 73.095995 325.12653379999995 72.51787 Q 324.76715879999995 71.92412 324.76715879999995 71.20537 Q 324.76715879999995 70.564745 325.06403379999995 70.01787 Q 325.36090879999995 69.45537 325.87653379999995 69.095995 Q 326.25153379999995 68.814745 326.90778379999995 68.627245 Q 327.57965879999995 68.42412 328.32965879999995 68.42412 Q 329.47028379999995 68.42412 330.32965879999995 68.752245 Q 331.18903379999995 69.08037 331.59528379999995 69.64287 Q 332.01715879999995 70.20537 332.17340879999995 71.14287 L 330.56403379999995 71.36162 Q 330.45465879999995 70.61162 329.92340879999995 70.189745 Q 329.40778379999995 69.76787 328.45465879999995 69.76787 Q 327.31403379999995 69.76787 326.82965879999995 70.14287 Q 326.36090879999995 70.51787 326.36090879999995 71.01787 Q 326.36090879999995 71.33037 326.54840879999995 71.595995 Q 326.75153379999995 71.86162 327.18903379999995 72.033495 Q 327.42340879999995 72.127245 328.62653379999995 72.45537 Q 330.37653379999995 72.908495 331.06403379999995 73.20537 Q 331.75153379999995 73.502245 332.14215879999995 74.064745 Q 332.53278379999995 74.627245 332.53278379999995 75.470995 Q 332.53278379999995 76.29912 332.04840879999995 77.01787 Q 331.57965879999995 77.73662 330.67340879999995 78.14287 Q 329.76715879999995 78.533495 328.62653379999995 78.533495 Q 326.75153379999995 78.533495 325.75153379999995 77.752245 Q 324.76715879999995 76.970995 324.50153379999995 75.42412 z" stroke-linecap="round" />
</g>
		<g transform="matrix(1 0 0 1 157.43 -86.15)" clip-path="url(#CLIPPATH_167)"  >
<clipPath id="CLIPPATH_167" >
	<path transform="matrix(1 0 0 1 -157.43 86.14) translate(-445.14, -147.45)" d="M 0 0 L 890.2808 0 L 890.2808 294.90552 L 0 294.90552 L 0 0 z" stroke-linecap="round" />
</clipPath>
<path style="stroke: none; stroke-width: 1; stroke-dasharray: none; stroke-linecap: square; stroke-dashoffset: 0; stroke-linejoin: miter; stroke-miterlimit: 10; fill: rgb(0,0,0); fill-opacity: 0; fill-rule: evenodd; opacity: 1;" vector-effect="non-scaling-stroke"  transform=" translate(-602.57, -61.31)" d="M 557.4199 28.994751 L 647.719094 28.994751 L 647.719094 93.624671 L 557.4199000000001 93.624671 z" stroke-linecap="round" />
</g>
		<g transform="matrix(1 0 0 1 135.63 -98.21)" clip-path="url(#CLIPPATH_168)"  >
<clipPath id="CLIPPATH_168" >
	<path transform="matrix(1 0 0 1 -135.63 98.21) translate(-445.14, -147.45)" d="M 0 0 L 890.2808 0 L 890.2808 294.90552 L 0 294.90552 L 0 0 z" stroke-linecap="round" />
</clipPath>
<path style="stroke: none; stroke-width: 1; stroke-dasharray: none; stroke-linecap: square; stroke-dashoffset: 0; stroke-linejoin: miter; stroke-miterlimit: 10; fill: rgb(255,255,255); fill-rule: nonzero; opacity: 1;" vector-effect="non-scaling-stroke"  transform=" translate(-580.77, -49.24)" d="M 567.2637 51.617874 L 568.91995 51.477249 Q 569.04495 52.477249 569.466825 53.117874 Q 569.904325 53.758499 570.810575 54.164749 Q 571.73245 54.555374 572.873075 54.555374 Q 573.873075 54.555374 574.654325 54.258499 Q 575.435575 53.961624 575.810575 53.445999 Q 576.185575 52.914749 576.185575 52.289749 Q 576.185575 51.664749 575.810575 51.195999 Q 575.4512 50.727249 574.623075 50.399124 Q 574.0762 50.195999 572.23245 49.758499 Q 570.404325 49.305374 569.66995 48.914749 Q 568.7012 48.414749 568.23245 47.680374 Q 567.7637 46.930374 567.7637 46.008499 Q 567.7637 45.008499 568.341825 44.133499 Q 568.91995 43.242874 570.0137 42.789749 Q 571.123075 42.336624 572.466825 42.336624 Q 573.9512 42.336624 575.0762 42.820999 Q 576.216825 43.289749 576.8262 44.227249 Q 577.435575 45.149124 577.48245 46.320999 L 575.79495 46.445999 Q 575.654325 45.180374 574.85745 44.539749 Q 574.0762 43.883499 572.54495 43.883499 Q 570.935575 43.883499 570.2012 44.477249 Q 569.466825 45.070999 569.466825 45.899124 Q 569.466825 46.617874 569.998075 47.070999 Q 570.498075 47.539749 572.654325 48.039749 Q 574.810575 48.524124 575.60745 48.883499 Q 576.779325 49.414749 577.3262 50.242874 Q 577.8887 51.070999 577.8887 52.149124 Q 577.8887 53.211624 577.279325 54.164749 Q 576.66995 55.102249 575.529325 55.633499 Q 574.3887 56.149124 572.9512 56.149124 Q 571.1387 56.149124 569.904325 55.617874 Q 568.685575 55.086624 567.98245 54.024124 Q 567.29495 52.961624 567.2637 51.617874 z M 586.722867 52.805374 L 588.410367 53.008499 Q 588.004117 54.492874 586.925992 55.320999 Q 585.847867 56.133499 584.160367 56.133499 Q 582.035367 56.133499 580.785367 54.836624 Q 579.550992 53.524124 579.550992 51.164749 Q 579.550992 48.711624 580.800992 47.367874 Q 582.066617 46.024124 584.066617 46.024124 Q 586.004117 46.024124 587.222867 47.352249 Q 588.457242 48.664749 588.457242 51.055374 Q 588.457242 51.211624 588.457242 51.492874 L 581.238492 51.492874 Q 581.332242 53.086624 582.144742 53.945999 Q 582.957242 54.789749 584.160367 54.789749 Q 585.066617 54.789749 585.707242 54.320999 Q 586.347867 53.836624 586.722867 52.805374 z M 581.332242 50.149124 L 586.738492 50.149124 Q 586.629117 48.930374 586.113492 48.320999 Q 585.332242 47.367874 584.082242 47.367874 Q 582.957242 47.367874 582.175992 48.133499 Q 581.410367 48.883499 581.332242 50.149124 z M 594.0517239999999 54.445999 L 594.2860989999999 55.899124 Q 593.5985989999999 56.039749 593.0517239999999 56.039749 Q 592.1610989999999 56.039749 591.6610989999999 55.758499 Q 591.1767239999999 55.477249 590.9735989999999 55.024124 Q 590.7704739999999 54.555374 590.7704739999999 53.086624 L 590.7704739999999 47.508499 L 589.5673489999999 47.508499 L 589.5673489999999 46.242874 L 590.7704739999999 46.242874 L 590.7704739999999 43.852249 L 592.3954739999999 42.867874 L 592.3954739999999 46.242874 L 594.0517239999999 46.242874 L 594.0517239999999 47.508499 L 592.3954739999999 47.508499 L 592.3954739999999 53.180374 Q 592.3954739999999 53.867874 592.4735989999999 54.070999 Q 592.5673489999999 54.274124 592.7548489999999 54.399124 Q 592.9579739999999 54.508499 593.3329739999999 54.508499 Q 593.5985989999999 54.508499 594.0517239999999 54.445999 z" stroke-linecap="round" />
</g>
		<g transform="matrix(1 0 0 1 139.36 -75.71)" clip-path="url(#CLIPPATH_169)"  >
<clipPath id="CLIPPATH_169" >
	<path transform="matrix(1 0 0 1 -139.36 75.71) translate(-445.14, -147.45)" d="M 0 0 L 890.2808 0 L 890.2808 294.90552 L 0 294.90552 L 0 0 z" stroke-linecap="round" />
</clipPath>
<path style="stroke: none; stroke-width: 1; stroke-dasharray: none; stroke-linecap: square; stroke-dashoffset: 0; stroke-linejoin: miter; stroke-miterlimit: 10; fill: rgb(255,255,255); fill-rule: nonzero; opacity: 1;" vector-effect="non-scaling-stroke"  transform=" translate(-584.5, -71.74)" d="M 573.9199 78.31474 L 573.9199 77.09599 Q 573.01365 78.53349 571.216775 78.53349 Q 570.060525 78.53349 569.091775 77.892865 Q 568.123025 77.25224 567.591775 76.111615 Q 567.060525 74.97099 567.060525 73.486615 Q 567.060525 72.03349 567.5449 70.861615 Q 568.029275 69.674115 568.9824 69.049115 Q 569.95115 68.424115 571.154275 68.424115 Q 572.029275 68.424115 572.70115 68.799115 Q 573.38865 69.15849 573.810525 69.75224 L 573.810525 64.955365 L 575.45115 64.955365 L 575.45115 78.31474 L 573.9199 78.31474 z M 568.748025 73.486615 Q 568.748025 75.34599 569.529275 76.267865 Q 570.310525 77.18974 571.373025 77.18974 Q 572.45115 77.18974 573.20115 76.31474 Q 573.95115 75.424115 573.95115 73.62724 Q 573.95115 71.642865 573.185525 70.72099 Q 572.4199 69.78349 571.2949 69.78349 Q 570.216775 69.78349 569.4824 70.674115 Q 568.748025 71.56474 568.748025 73.486615 z M 584.342507 77.12724 Q 583.420632 77.892865 582.576882 78.22099 Q 581.748757 78.53349 580.780007 78.53349 Q 579.186257 78.53349 578.326882 77.75224 Q 577.467507 76.97099 577.467507 75.767865 Q 577.467507 75.049115 577.795632 74.47099 Q 578.123757 73.87724 578.639382 73.53349 Q 579.170632 73.174115 579.826882 72.986615 Q 580.295632 72.861615 581.280007 72.736615 Q 583.264382 72.50224 584.201882 72.174115 Q 584.217507 71.830365 584.217507 71.75224 Q 584.217507 70.75224 583.748757 70.330365 Q 583.123757 69.78349 581.873757 69.78349 Q 580.717507 69.78349 580.170632 70.18974 Q 579.623757 70.59599 579.358132 71.611615 L 577.748757 71.392865 Q 577.967507 70.37724 578.467507 69.75224 Q 578.967507 69.111615 579.920632 68.767865 Q 580.873757 68.424115 582.108132 68.424115 Q 583.358132 68.424115 584.123757 68.72099 Q 584.905007 69.00224 585.264382 69.455365 Q 585.639382 69.892865 585.780007 70.56474 Q 585.858132 70.986615 585.858132 72.080365 L 585.858132 74.267865 Q 585.858132 76.549115 585.967507 77.15849 Q 586.076882 77.75224 586.373757 78.31474 L 584.670632 78.31474 Q 584.405007 77.799115 584.342507 77.12724 z M 584.201882 73.455365 Q 583.311257 73.830365 581.530007 74.080365 Q 580.514382 74.22099 580.092507 74.40849 Q 579.670632 74.59599 579.436257 74.93974 Q 579.217507 75.28349 579.217507 75.72099 Q 579.217507 76.37724 579.717507 76.81474 Q 580.217507 77.25224 581.170632 77.25224 Q 582.108132 77.25224 582.842507 76.84599 Q 583.592507 76.424115 583.936257 75.705365 Q 584.201882 75.142865 584.201882 74.06474 L 584.201882 73.455365 z M 591.9838033999999 76.84599 L 592.2181783999999 78.299115 Q 591.5306783999999 78.43974 590.9838033999999 78.43974 Q 590.0931783999999 78.43974 589.5931783999999 78.15849 Q 589.1088033999999 77.87724 588.9056783999999 77.424115 Q 588.7025533999999 76.955365 588.7025533999999 75.486615 L 588.7025533999999 69.90849 L 587.4994283999999 69.90849 L 587.4994283999999 68.642865 L 588.7025533999999 68.642865 L 588.7025533999999 66.25224 L 590.3275533999999 65.267865 L 590.3275533999999 68.642865 L 591.9838033999999 68.642865 L 591.9838033999999 69.90849 L 590.3275533999999 69.90849 L 590.3275533999999 75.580365 Q 590.3275533999999 76.267865 590.4056783999999 76.47099 Q 590.4994283999999 76.674115 590.6869283999999 76.799115 Q 590.8900533999999 76.90849 591.2650533999999 76.90849 Q 591.5306783999999 76.90849 591.9838033999999 76.84599 z M 599.901528 77.12724 Q 598.979653 77.892865 598.135903 78.22099 Q 597.307778 78.53349 596.339028 78.53349 Q 594.745278 78.53349 593.885903 77.75224 Q 593.026528 76.97099 593.026528 75.767865 Q 593.026528 75.049115 593.354653 74.47099 Q 593.682778 73.87724 594.198403 73.53349 Q 594.729653 73.174115 595.385903 72.986615 Q 595.854653 72.861615 596.839028 72.736615 Q 598.823403 72.50224 599.760903 72.174115 Q 599.776528 71.830365 599.776528 71.75224 Q 599.776528 70.75224 599.307778 70.330365 Q 598.682778 69.78349 597.432778 69.78349 Q 596.276528 69.78349 595.729653 70.18974 Q 595.182778 70.59599 594.917153 71.611615 L 593.307778 71.392865 Q 593.526528 70.37724 594.026528 69.75224 Q 594.526528 69.111615 595.479653 68.767865 Q 596.432778 68.424115 597.667153 68.424115 Q 598.917153 68.424115 599.682778 68.72099 Q 600.464028 69.00224 600.823403 69.455365 Q 601.198403 69.892865 601.339028 70.56474 Q 601.417153 70.986615 601.417153 72.080365 L 601.417153 74.267865 Q 601.417153 76.549115 601.526528 77.15849 Q 601.635903 77.75224 601.932778 78.31474 L 600.229653 78.31474 Q 599.964028 77.799115 599.901528 77.12724 z M 599.760903 73.455365 Q 598.870278 73.830365 597.089028 74.080365 Q 596.073403 74.22099 595.651528 74.40849 Q 595.229653 74.59599 594.995278 74.93974 Q 594.776528 75.28349 594.776528 75.72099 Q 594.776528 76.37724 595.276528 76.81474 Q 595.776528 77.25224 596.729653 77.25224 Q 597.667153 77.25224 598.401528 76.84599 Q 599.151528 76.424115 599.495278 75.705365 Q 599.760903 75.142865 599.760903 74.06474 L 599.760903 73.455365 z" stroke-linecap="round" />
</g>
		<g transform="matrix(1 0 0 1 157.43 -37.79)" clip-path="url(#CLIPPATH_170)"  >
<clipPath id="CLIPPATH_170" >
	<path transform="matrix(1 0 0 1 -157.43 37.79) translate(-445.14, -147.45)" d="M 0 0 L 890.2808 0 L 890.2808 294.90552 L 0 294.90552 L 0 0 z" stroke-linecap="round" />
</clipPath>
<path style="stroke: none; stroke-width: 1; stroke-dasharray: none; stroke-linecap: square; stroke-dashoffset: 0; stroke-linejoin: miter; stroke-miterlimit: 10; fill: rgb(0,0,0); fill-opacity: 0; fill-rule: evenodd; opacity: 1;" vector-effect="non-scaling-stroke"  transform=" translate(-602.57, -109.66)" d="M 557.4199 77.34908 L 647.719094 77.34908 L 647.719094 141.97899999999998 L 557.4199000000001 141.97899999999998 z" stroke-linecap="round" />
</g>
		<g transform="matrix(1 0 0 1 155.33 -49.75)" clip-path="url(#CLIPPATH_171)"  >
<clipPath id="CLIPPATH_171" >
	<path transform="matrix(1 0 0 1 -155.32 49.75) translate(-445.14, -147.45)" d="M 0 0 L 890.2808 0 L 890.2808 294.90552 L 0 294.90552 L 0 0 z" stroke-linecap="round" />
</clipPath>
<path style="stroke: none; stroke-width: 1; stroke-dasharray: none; stroke-linecap: square; stroke-dashoffset: 0; stroke-linejoin: miter; stroke-miterlimit: 10; fill: rgb(255,255,255); fill-rule: nonzero; opacity: 1;" vector-effect="non-scaling-stroke"  transform=" translate(-600.46, -97.7)" d="M 567.8887 104.26908 L 567.8887 90.909705 L 573.810575 90.909705 Q 575.591825 90.909705 576.5137 91.26908 Q 577.4512 91.628455 577.998075 92.55033 Q 578.560575 93.45658 578.560575 94.565955 Q 578.560575 95.972205 577.6387 96.95658 Q 576.716825 97.92533 574.79495 98.190955 Q 575.498075 98.534705 575.873075 98.86283 Q 576.6387 99.565955 577.3262 100.628455 L 579.654325 104.26908 L 577.435575 104.26908 L 575.66995 101.48783 Q 574.8887 100.284705 574.3887 99.659705 Q 573.8887 99.01908 573.48245 98.76908 Q 573.091825 98.503455 572.685575 98.409705 Q 572.3887 98.33158 571.7012 98.33158 L 569.654325 98.33158 L 569.654325 104.26908 L 567.8887 104.26908 z M 569.654325 96.815955 L 573.4512 96.815955 Q 574.66995 96.815955 575.341825 96.565955 Q 576.029325 96.30033 576.3887 95.753455 Q 576.748075 95.20658 576.748075 94.565955 Q 576.748075 93.61283 576.060575 93.003455 Q 575.373075 92.39408 573.873075 92.39408 L 569.654325 92.39408 L 569.654325 96.815955 z M 587.752286 101.159705 L 589.439786 101.36283 Q 589.033536 102.847205 587.955411 103.67533 Q 586.877286 104.48783 585.189786 104.48783 Q 583.064786 104.48783 581.814786 103.190955 Q 580.580411 101.878455 580.580411 99.51908 Q 580.580411 97.065955 581.830411 95.722205 Q 583.096036 94.378455 585.096036 94.378455 Q 587.033536 94.378455 588.252286 95.70658 Q 589.486661 97.01908 589.486661 99.409705 Q 589.486661 99.565955 589.486661 99.847205 L 582.267911 99.847205 Q 582.361661 101.440955 583.174161 102.30033 Q 583.986661 103.14408 585.189786 103.14408 Q 586.096036 103.14408 586.736661 102.67533 Q 587.377286 102.190955 587.752286 101.159705 z M 582.361661 98.503455 L 587.767911 98.503455 Q 587.658536 97.284705 587.142911 96.67533 Q 586.361661 95.722205 585.111661 95.722205 Q 583.986661 95.722205 583.205411 96.48783 Q 582.439786 97.23783 582.361661 98.503455 z M 597.815457 100.722205 L 599.424832 100.940955 Q 599.159207 102.597205 598.065457 103.55033 Q 596.987332 104.48783 595.393582 104.48783 Q 593.409207 104.48783 592.206082 103.190955 Q 591.002957 101.89408 591.002957 99.472205 Q 591.002957 97.89408 591.518582 96.722205 Q 592.034207 95.55033 593.096707 94.972205 Q 594.159207 94.378455 595.409207 94.378455 Q 596.987332 94.378455 597.987332 95.17533 Q 598.987332 95.972205 599.268582 97.440955 L 597.674832 97.67533 Q 597.440457 96.70658 596.862332 96.222205 Q 596.284207 95.722205 595.471707 95.722205 Q 594.237332 95.722205 593.456082 96.61283 Q 592.674832 97.503455 592.674832 99.42533 Q 592.674832 101.378455 593.424832 102.26908 Q 594.174832 103.14408 595.377957 103.14408 Q 596.346707 103.14408 596.987332 102.55033 Q 597.643582 101.95658 597.815457 100.722205 z M 607.456082 101.159705 L 609.143582 101.36283 Q 608.737332 102.847205 607.659207 103.67533 Q 606.581082 104.48783 604.893582 104.48783 Q 602.768582 104.48783 601.518582 103.190955 Q 600.284207 101.878455 600.284207 99.51908 Q 600.284207 97.065955 601.534207 95.722205 Q 602.799832 94.378455 604.799832 94.378455 Q 606.737332 94.378455 607.956082 95.70658 Q 609.190457 97.01908 609.190457 99.409705 Q 609.190457 99.565955 609.190457 99.847205 L 601.971707 99.847205 Q 602.065457 101.440955 602.877957 102.30033 Q 603.690457 103.14408 604.893582 103.14408 Q 605.799832 103.14408 606.440457 102.67533 Q 607.081082 102.190955 607.456082 101.159705 z M 602.065457 98.503455 L 607.471707 98.503455 Q 607.362332 97.284705 606.846707 96.67533 Q 606.065457 95.722205 604.815457 95.722205 Q 603.690457 95.722205 602.909207 96.48783 Q 602.143582 97.23783 602.065457 98.503455 z M 611.206814 92.80033 L 611.206814 90.909705 L 612.847439 90.909705 L 612.847439 92.80033 L 611.206814 92.80033 z M 611.206814 104.26908 L 611.206814 94.597205 L 612.847439 94.597205 L 612.847439 104.26908 L 611.206814 104.26908 z M 618.0391504 104.26908 L 614.3516504 94.597205 L 616.0860254 94.597205 L 618.1641504 100.39408 Q 618.4922754 101.33158 618.7891504 102.33158 Q 618.9922754 101.565955 619.3985254 100.503455 L 621.5391504 94.597205 L 623.2266504 94.597205 L 619.5704004 104.26908 L 618.0391504 104.26908 z M 631.3047754 101.159705 L 632.9922754 101.36283 Q 632.5860254 102.847205 631.5079004 103.67533 Q 630.4297754 104.48783 628.7422754 104.48783 Q 626.6172754 104.48783 625.3672754 103.190955 Q 624.1329004 101.878455 624.1329004 99.51908 Q 624.1329004 97.065955 625.3829004 95.722205 Q 626.6485254 94.378455 628.6485254 94.378455 Q 630.5860254 94.378455 631.8047754 95.70658 Q 633.0391504 97.01908 633.0391504 99.409705 Q 633.0391504 99.565955 633.0391504 99.847205 L 625.8204004 99.847205 Q 625.9141504 101.440955 626.7266504 102.30033 Q 627.5391504 103.14408 628.7422754 103.14408 Q 629.6485254 103.14408 630.2891504 102.67533 Q 630.9297754 102.190955 631.3047754 101.159705 z M 625.9141504 98.503455 L 631.3204004 98.503455 Q 631.2110254 97.284705 630.6954004 96.67533 Q 629.9141504 95.722205 628.6641504 95.722205 Q 627.5391504 95.722205 626.7579004 96.48783 Q 625.9922754 97.23783 625.9141504 98.503455 z" stroke-linecap="round" />
</g>
		<g transform="matrix(1 0 0 1 139.36 -27.35)" clip-path="url(#CLIPPATH_172)"  >
<clipPath id="CLIPPATH_172" >
	<path transform="matrix(1 0 0 1 -139.36 27.35) translate(-445.14, -147.45)" d="M 0 0 L 890.2808 0 L 890.2808 294.90552 L 0 294.90552 L 0 0 z" stroke-linecap="round" />
</clipPath>
<path style="stroke: none; stroke-width: 1; stroke-dasharray: none; stroke-linecap: square; stroke-dashoffset: 0; stroke-linejoin: miter; stroke-miterlimit: 10; fill: rgb(255,255,255); fill-rule: nonzero; opacity: 1;" vector-effect="non-scaling-stroke"  transform=" translate(-584.5, -120.1)" d="M 573.9199 126.669075 L 573.9199 125.450325 Q 573.01365 126.887825 571.216775 126.887825 Q 570.060525 126.887825 569.091775 126.2472 Q 568.123025 125.606575 567.591775 124.46595 Q 567.060525 123.325325 567.060525 121.84095 Q 567.060525 120.387825 567.5449 119.21595 Q 568.029275 118.02845 568.9824 117.40345 Q 569.95115 116.77845 571.154275 116.77845 Q 572.029275 116.77845 572.70115 117.15345 Q 573.38865 117.512825 573.810525 118.106575 L 573.810525 113.3097 L 575.45115 113.3097 L 575.45115 126.669075 L 573.9199 126.669075 z M 568.748025 121.84095 Q 568.748025 123.700325 569.529275 124.6222 Q 570.310525 125.544075 571.373025 125.544075 Q 572.45115 125.544075 573.20115 124.669075 Q 573.95115 123.77845 573.95115 121.981575 Q 573.95115 119.9972 573.185525 119.075325 Q 572.4199 118.137825 571.2949 118.137825 Q 570.216775 118.137825 569.4824 119.02845 Q 568.748025 119.919075 568.748025 121.84095 z M 584.342507 125.481575 Q 583.420632 126.2472 582.576882 126.575325 Q 581.748757 126.887825 580.780007 126.887825 Q 579.186257 126.887825 578.326882 126.106575 Q 577.467507 125.325325 577.467507 124.1222 Q 577.467507 123.40345 577.795632 122.825325 Q 578.123757 122.231575 578.639382 121.887825 Q 579.170632 121.52845 579.826882 121.34095 Q 580.295632 121.21595 581.280007 121.09095 Q 583.264382 120.856575 584.201882 120.52845 Q 584.217507 120.1847 584.217507 120.106575 Q 584.217507 119.106575 583.748757 118.6847 Q 583.123757 118.137825 581.873757 118.137825 Q 580.717507 118.137825 580.170632 118.544075 Q 579.623757 118.950325 579.358132 119.96595 L 577.748757 119.7472 Q 577.967507 118.731575 578.467507 118.106575 Q 578.967507 117.46595 579.920632 117.1222 Q 580.873757 116.77845 582.108132 116.77845 Q 583.358132 116.77845 584.123757 117.075325 Q 584.905007 117.356575 585.264382 117.8097 Q 585.639382 118.2472 585.780007 118.919075 Q 585.858132 119.34095 585.858132 120.4347 L 585.858132 122.6222 Q 585.858132 124.90345 585.967507 125.512825 Q 586.076882 126.106575 586.373757 126.669075 L 584.670632 126.669075 Q 584.405007 126.15345 584.342507 125.481575 z M 584.201882 121.8097 Q 583.311257 122.1847 581.530007 122.4347 Q 580.514382 122.575325 580.092507 122.762825 Q 579.670632 122.950325 579.436257 123.294075 Q 579.217507 123.637825 579.217507 124.075325 Q 579.217507 124.731575 579.717507 125.169075 Q 580.217507 125.606575 581.170632 125.606575 Q 582.108132 125.606575 582.842507 125.200325 Q 583.592507 124.77845 583.936257 124.0597 Q 584.201882 123.4972 584.201882 122.419075 L 584.201882 121.8097 z M 591.9838033999999 125.200325 L 592.2181783999999 126.65345 Q 591.5306783999999 126.794075 590.9838033999999 126.794075 Q 590.0931783999999 126.794075 589.5931783999999 126.512825 Q 589.1088033999999 126.231575 588.9056783999999 125.77845 Q 588.7025533999999 125.3097 588.7025533999999 123.84095 L 588.7025533999999 118.262825 L 587.4994283999999 118.262825 L 587.4994283999999 116.9972 L 588.7025533999999 116.9972 L 588.7025533999999 114.606575 L 590.3275533999999 113.6222 L 590.3275533999999 116.9972 L 591.9838033999999 116.9972 L 591.9838033999999 118.262825 L 590.3275533999999 118.262825 L 590.3275533999999 123.9347 Q 590.3275533999999 124.6222 590.4056783999999 124.825325 Q 590.4994283999999 125.02845 590.6869283999999 125.15345 Q 590.8900533999999 125.262825 591.2650533999999 125.262825 Q 591.5306783999999 125.262825 591.9838033999999 125.200325 z M 599.901528 125.481575 Q 598.979653 126.2472 598.135903 126.575325 Q 597.307778 126.887825 596.339028 126.887825 Q 594.745278 126.887825 593.885903 126.106575 Q 593.026528 125.325325 593.026528 124.1222 Q 593.026528 123.40345 593.354653 122.825325 Q 593.682778 122.231575 594.198403 121.887825 Q 594.729653 121.52845 595.385903 121.34095 Q 595.854653 121.21595 596.839028 121.09095 Q 598.823403 120.856575 599.760903 120.52845 Q 599.776528 120.1847 599.776528 120.106575 Q 599.776528 119.106575 599.307778 118.6847 Q 598.682778 118.137825 597.432778 118.137825 Q 596.276528 118.137825 595.729653 118.544075 Q 595.182778 118.950325 594.917153 119.96595 L 593.307778 119.7472 Q 593.526528 118.731575 594.026528 118.106575 Q 594.526528 117.46595 595.479653 117.1222 Q 596.432778 116.77845 597.667153 116.77845 Q 598.917153 116.77845 599.682778 117.075325 Q 600.464028 117.356575 600.823403 117.8097 Q 601.198403 118.2472 601.339028 118.919075 Q 601.417153 119.34095 601.417153 120.4347 L 601.417153 122.6222 Q 601.417153 124.90345 601.526528 125.512825 Q 601.635903 126.106575 601.932778 126.669075 L 600.229653 126.669075 Q 599.964028 126.15345 599.901528 125.481575 z M 599.760903 121.8097 Q 598.870278 122.1847 597.089028 122.4347 Q 596.073403 122.575325 595.651528 122.762825 Q 595.229653 122.950325 594.995278 123.294075 Q 594.776528 123.637825 594.776528 124.075325 Q 594.776528 124.731575 595.276528 125.169075 Q 595.776528 125.606575 596.729653 125.606575 Q 597.667153 125.606575 598.401528 125.200325 Q 599.151528 124.77845 599.495278 124.0597 Q 599.760903 123.4972 599.760903 122.419075 L 599.760903 121.8097 z" stroke-linecap="round" />
</g>
		<g transform="matrix(1 0 0 1 -133.81 -37.79)" clip-path="url(#CLIPPATH_173)"  >
<clipPath id="CLIPPATH_173" >
	<path transform="matrix(1 0 0 1 133.81 37.79) translate(-445.14, -147.45)" d="M 0 0 L 890.2808 0 L 890.2808 294.90552 L 0 294.90552 L 0 0 z" stroke-linecap="round" />
</clipPath>
<path style="stroke: none; stroke-width: 1; stroke-dasharray: none; stroke-linecap: square; stroke-dashoffset: 0; stroke-linejoin: miter; stroke-miterlimit: 10; fill: rgb(0,0,0); fill-opacity: 0; fill-rule: evenodd; opacity: 1;" vector-effect="non-scaling-stroke"  transform=" translate(-311.33, -109.66)" d="M 266.17584 77.34908 L 356.475065 77.34908 L 356.475065 141.97899999999998 L 266.17584 141.97899999999998 z" stroke-linecap="round" />
</g>
		<g transform="matrix(1 0 0 1 -139.68 -49.75)" clip-path="url(#CLIPPATH_174)"  >
<clipPath id="CLIPPATH_174" >
	<path transform="matrix(1 0 0 1 139.68 49.75) translate(-445.14, -147.45)" d="M 0 0 L 890.2808 0 L 890.2808 294.90552 L 0 294.90552 L 0 0 z" stroke-linecap="round" />
</clipPath>
<path style="stroke: none; stroke-width: 1; stroke-dasharray: none; stroke-linecap: square; stroke-dashoffset: 0; stroke-linejoin: miter; stroke-miterlimit: 10; fill: rgb(255,255,255); fill-rule: nonzero; opacity: 1;" vector-effect="non-scaling-stroke"  transform=" translate(-305.46, -97.7)" d="M 276.3946 104.26908 L 276.3946 94.597205 L 277.86335 94.597205 L 277.86335 96.065955 Q 278.42585 95.034705 278.8946 94.70658 Q 279.378975 94.378455 279.9571 94.378455 Q 280.785225 94.378455 281.6446 94.909705 L 281.0821 96.42533 Q 280.472725 96.065955 279.878975 96.065955 Q 279.3321 96.065955 278.910225 96.39408 Q 278.48835 96.722205 278.30085 97.284705 Q 278.0196 98.159705 278.0196 99.20658 L 278.0196 104.26908 L 276.3946 104.26908 z M 289.247902 101.159705 L 290.935402 101.36283 Q 290.529152 102.847205 289.451027 103.67533 Q 288.372902 104.48783 286.685402 104.48783 Q 284.560402 104.48783 283.310402 103.190955 Q 282.076027 101.878455 282.076027 99.51908 Q 282.076027 97.065955 283.326027 95.722205 Q 284.591652 94.378455 286.591652 94.378455 Q 288.529152 94.378455 289.747902 95.70658 Q 290.982277 97.01908 290.982277 99.409705 Q 290.982277 99.565955 290.982277 99.847205 L 283.763527 99.847205 Q 283.857277 101.440955 284.669777 102.30033 Q 285.482277 103.14408 286.685402 103.14408 Q 287.591652 103.14408 288.232277 102.67533 Q 288.872902 102.190955 289.247902 101.159705 z M 283.857277 98.503455 L 289.263527 98.503455 Q 289.154152 97.284705 288.638527 96.67533 Q 287.857277 95.722205 286.607277 95.722205 Q 285.482277 95.722205 284.701027 96.48783 Q 283.935402 97.23783 283.857277 98.503455 z M 299.31113400000004 100.722205 L 300.92050900000004 100.940955 Q 300.65488400000004 102.597205 299.56113400000004 103.55033 Q 298.48300900000004 104.48783 296.88925900000004 104.48783 Q 294.90488400000004 104.48783 293.70175900000004 103.190955 Q 292.49863400000004 101.89408 292.49863400000004 99.472205 Q 292.49863400000004 97.89408 293.01425900000004 96.722205 Q 293.52988400000004 95.55033 294.59238400000004 94.972205 Q 295.65488400000004 94.378455 296.90488400000004 94.378455 Q 298.48300900000004 94.378455 299.48300900000004 95.17533 Q 300.48300900000004 95.972205 300.76425900000004 97.440955 L 299.17050900000004 97.67533 Q 298.93613400000004 96.70658 298.35800900000004 96.222205 Q 297.77988400000004 95.722205 296.96738400000004 95.722205 Q 295.73300900000004 95.722205 294.95175900000004 96.61283 Q 294.17050900000004 97.503455 294.17050900000004 99.42533 Q 294.17050900000004 101.378455 294.92050900000004 102.26908 Q 295.67050900000004 103.14408 296.87363400000004 103.14408 Q 297.84238400000004 103.14408 298.48300900000004 102.55033 Q 299.13925900000004 101.95658 299.31113400000004 100.722205 z M 308.95175900000004 101.159705 L 310.63925900000004 101.36283 Q 310.23300900000004 102.847205 309.15488400000004 103.67533 Q 308.07675900000004 104.48783 306.38925900000004 104.48783 Q 304.26425900000004 104.48783 303.01425900000004 103.190955 Q 301.77988400000004 101.878455 301.77988400000004 99.51908 Q 301.77988400000004 97.065955 303.02988400000004 95.722205 Q 304.29550900000004 94.378455 306.29550900000004 94.378455 Q 308.23300900000004 94.378455 309.45175900000004 95.70658 Q 310.68613400000004 97.01908 310.68613400000004 99.409705 Q 310.68613400000004 99.565955 310.68613400000004 99.847205 L 303.46738400000004 99.847205 Q 303.56113400000004 101.440955 304.37363400000004 102.30033 Q 305.18613400000004 103.14408 306.38925900000004 103.14408 Q 307.29550900000004 103.14408 307.93613400000004 102.67533 Q 308.57675900000004 102.190955 308.95175900000004 101.159705 z M 303.56113400000004 98.503455 L 308.96738400000004 98.503455 Q 308.85800900000004 97.284705 308.34238400000004 96.67533 Q 307.56113400000004 95.722205 306.31113400000004 95.722205 Q 305.18613400000004 95.722205 304.40488400000004 96.48783 Q 303.63925900000004 97.23783 303.56113400000004 98.503455 z M 312.702461 92.80033 L 312.702461 90.909705 L 314.343086 90.909705 L 314.343086 92.80033 L 312.702461 92.80033 z M 312.702461 104.26908 L 312.702461 94.597205 L 314.343086 94.597205 L 314.343086 104.26908 L 312.702461 104.26908 z M 319.5347974 104.26908 L 315.8472974 94.597205 L 317.5816724 94.597205 L 319.6597974 100.39408 Q 319.9879224 101.33158 320.2847974 102.33158 Q 320.4879224 101.565955 320.8941724 100.503455 L 323.0347974 94.597205 L 324.7222974 94.597205 L 321.0660474 104.26908 L 319.5347974 104.26908 z M 332.8004224 101.159705 L 334.4879224 101.36283 Q 334.0816724 102.847205 333.0035474 103.67533 Q 331.9254224 104.48783 330.2379224 104.48783 Q 328.1129224 104.48783 326.8629224 103.190955 Q 325.6285474 101.878455 325.6285474 99.51908 Q 325.6285474 97.065955 326.8785474 95.722205 Q 328.1441724 94.378455 330.1441724 94.378455 Q 332.0816724 94.378455 333.3004224 95.70658 Q 334.5347974 97.01908 334.5347974 99.409705 Q 334.5347974 99.565955 334.5347974 99.847205 L 327.3160474 99.847205 Q 327.4097974 101.440955 328.2222974 102.30033 Q 329.0347974 103.14408 330.2379224 103.14408 Q 331.1441724 103.14408 331.7847974 102.67533 Q 332.4254224 102.190955 332.8004224 101.159705 z M 327.4097974 98.503455 L 332.8160474 98.503455 Q 332.7066724 97.284705 332.1910474 96.67533 Q 331.4097974 95.722205 330.1597974 95.722205 Q 329.0347974 95.722205 328.2535474 96.48783 Q 327.4879224 97.23783 327.4097974 98.503455 z" stroke-linecap="round" />
</g>
		<g transform="matrix(1 0 0 1 -141 -25.5)" clip-path="url(#CLIPPATH_175)"  >
<clipPath id="CLIPPATH_175" >
	<path transform="matrix(1 0 0 1 141 25.5) translate(-445.14, -147.45)" d="M 0 0 L 890.2808 0 L 890.2808 294.90552 L 0 294.90552 L 0 0 z" stroke-linecap="round" />
</clipPath>
<path style="stroke: none; stroke-width: 1; stroke-dasharray: none; stroke-linecap: square; stroke-dashoffset: 0; stroke-linejoin: miter; stroke-miterlimit: 10; fill: rgb(255,255,255); fill-rule: nonzero; opacity: 1;" vector-effect="non-scaling-stroke"  transform=" translate(-304.14, -121.95)" d="M 275.75397 123.77845 L 277.37897 123.52845 Q 277.50397 124.4972 278.12897 125.02845 Q 278.75397 125.544075 279.87897 125.544075 Q 281.00397 125.544075 281.550845 125.09095 Q 282.09772 124.6222 282.09772 123.9972 Q 282.09772 123.450325 281.613345 123.1222 Q 281.28522 122.90345 279.94147 122.575325 Q 278.12897 122.106575 277.425845 121.77845 Q 276.738345 121.450325 276.37897 120.8722 Q 276.019595 120.27845 276.019595 119.5597 Q 276.019595 118.919075 276.31647 118.3722 Q 276.613345 117.8097 277.12897 117.450325 Q 277.50397 117.169075 278.16022 116.981575 Q 278.832095 116.77845 279.582095 116.77845 Q 280.72272 116.77845 281.582095 117.106575 Q 282.44147 117.4347 282.84772 117.9972 Q 283.269595 118.5597 283.425845 119.4972 L 281.81647 119.71595 Q 281.707095 118.96595 281.175845 118.544075 Q 280.66022 118.1222 279.707095 118.1222 Q 278.56647 118.1222 278.082095 118.4972 Q 277.613345 118.8722 277.613345 119.3722 Q 277.613345 119.6847 277.800845 119.950325 Q 278.00397 120.21595 278.44147 120.387825 Q 278.675845 120.481575 279.87897 120.8097 Q 281.62897 121.262825 282.31647 121.5597 Q 283.00397 121.856575 283.394595 122.419075 Q 283.78522 122.981575 283.78522 123.825325 Q 283.78522 124.65345 283.300845 125.3722 Q 282.832095 126.09095 281.925845 126.4972 Q 281.019595 126.887825 279.87897 126.887825 Q 278.00397 126.887825 277.00397 126.106575 Q 276.019595 125.325325 275.75397 123.77845 z M 285.738345 115.200325 L 285.738345 113.3097 L 287.37897 113.3097 L 287.37897 115.200325 L 285.738345 115.200325 z M 285.738345 126.669075 L 285.738345 116.9972 L 287.37897 116.9972 L 287.37897 126.669075 L 285.738345 126.669075 z M 289.57068139999996 127.46595 L 291.16443139999996 127.700325 Q 291.27380639999996 128.4503326 291.72693139999996 128.7784576 Q 292.33630639999996 129.2315826 293.39880639999996 129.2315826 Q 294.53943139999996 129.2315826 295.14880639999996 128.7784576 Q 295.77380639999996 128.3253326 295.99255639999996 127.51282499999999 Q 296.11755639999996 127.01282499999999 296.10193139999996 125.40344999999999 Q 295.03943139999996 126.66907499999999 293.43005639999996 126.66907499999999 Q 291.43005639999996 126.66907499999999 290.33630639999996 125.23157499999999 Q 289.24255639999996 123.79407499999999 289.24255639999996 121.77844999999999 Q 289.24255639999996 120.38782499999999 289.74255639999996 119.21594999999999 Q 290.25818139999996 118.04407499999999 291.19568139999996 117.41907499999999 Q 292.14880639999996 116.77844999999999 293.44568139999996 116.77844999999999 Q 295.14880639999996 116.77844999999999 296.25818139999996 118.15344999999999 L 296.25818139999996 116.99719999999999 L 297.77380639999996 116.99719999999999 L 297.77380639999996 125.35657499999999 Q 297.77380639999996 127.62219999999999 297.30505639999996 128.5597076 Q 296.85193139999996 129.4972076 295.85193139999996 130.0440826 Q 294.86755639999996 130.5909576 293.39880639999996 130.5909576 Q 291.68005639999996 130.5909576 290.60193139999996 129.8097076 Q 289.53943139999996 129.0440826 289.57068139999996 127.46594999999999 z M 290.93005639999996 121.65345 Q 290.93005639999996 123.5597 291.68005639999996 124.4347 Q 292.44568139999996 125.3097 293.58630639999996 125.3097 Q 294.71130639999996 125.3097 295.47693139999996 124.450325 Q 296.24255639999996 123.575325 296.24255639999996 121.71595 Q 296.24255639999996 119.9347 295.44568139999996 119.044075 Q 294.66443139999996 118.137825 293.55505639999996 118.137825 Q 292.46130639999996 118.137825 291.69568139999996 119.02845 Q 290.93005639999996 119.90345 290.93005639999996 121.65345 z M 300.25888339999995 126.669075 L 300.25888339999995 116.9972 L 301.72763339999995 116.9972 L 301.72763339999995 118.3722 Q 302.79013339999995 116.77845 304.80575839999995 116.77845 Q 305.68075839999995 116.77845 306.41513339999995 117.09095 Q 307.14950839999995 117.40345 307.50888339999995 117.919075 Q 307.88388339999995 118.419075 308.02450839999995 119.1222 Q 308.11825839999995 119.575325 308.11825839999995 120.71595 L 308.11825839999995 126.669075 L 306.47763339999995 126.669075 L 306.47763339999995 120.77845 Q 306.47763339999995 119.77845 306.27450839999995 119.294075 Q 306.08700839999995 118.794075 305.60263339999995 118.4972 Q 305.11825839999995 118.200325 304.46200839999995 118.200325 Q 303.41513339999995 118.200325 302.64950839999995 118.8722 Q 301.89950839999995 119.52845 301.89950839999995 121.387825 L 301.89950839999995 126.669075 L 300.25888339999995 126.669075 z M 316.9471153999999 125.481575 Q 316.0252403999999 126.2472 315.1814903999999 126.575325 Q 314.3533653999999 126.887825 313.3846153999999 126.887825 Q 311.7908653999999 126.887825 310.9314903999999 126.106575 Q 310.0721153999999 125.325325 310.0721153999999 124.1222 Q 310.0721153999999 123.40345 310.4002403999999 122.825325 Q 310.7283653999999 122.231575 311.2439903999999 121.887825 Q 311.7752403999999 121.52845 312.4314903999999 121.34095 Q 312.9002403999999 121.21595 313.8846153999999 121.09095 Q 315.8689903999999 120.856575 316.8064903999999 120.52845 Q 316.8221153999999 120.1847 316.8221153999999 120.106575 Q 316.8221153999999 119.106575 316.3533653999999 118.6847 Q 315.7283653999999 118.137825 314.4783653999999 118.137825 Q 313.3221153999999 118.137825 312.7752403999999 118.544075 Q 312.2283653999999 118.950325 311.9627403999999 119.96595 L 310.3533653999999 119.7472 Q 310.5721153999999 118.731575 311.0721153999999 118.106575 Q 311.5721153999999 117.46595 312.5252403999999 117.1222 Q 313.4783653999999 116.77845 314.7127403999999 116.77845 Q 315.9627403999999 116.77845 316.7283653999999 117.075325 Q 317.5096153999999 117.356575 317.8689903999999 117.8097 Q 318.2439903999999 118.2472 318.3846153999999 118.919075 Q 318.4627403999999 119.34095 318.4627403999999 120.4347 L 318.4627403999999 122.6222 Q 318.4627403999999 124.90345 318.5721153999999 125.512825 Q 318.6814903999999 126.106575 318.9783653999999 126.669075 L 317.2752403999999 126.669075 Q 317.0096153999999 126.15345 316.9471153999999 125.481575 z M 316.8064903999999 121.8097 Q 315.9158653999999 122.1847 314.1346153999999 122.4347 Q 313.1189903999999 122.575325 312.6971153999999 122.762825 Q 312.2752403999999 122.950325 312.0408653999999 123.294075 Q 311.8221153999999 123.637825 311.8221153999999 124.075325 Q 311.8221153999999 124.731575 312.3221153999999 125.169075 Q 312.8221153999999 125.606575 313.7752403999999 125.606575 Q 314.7127403999999 125.606575 315.4471153999999 125.200325 Q 316.1971153999999 124.77845 316.5408653999999 124.0597 Q 316.8064903999999 123.4972 316.8064903999999 122.419075 L 316.8064903999999 121.8097 z M 320.9634423999999 126.669075 L 320.9634423999999 113.3097 L 322.6040673999999 113.3097 L 322.6040673999999 126.669075 L 320.9634423999999 126.669075 z M 324.4989037999999 123.77845 L 326.1239037999999 123.52845 Q 326.2489037999999 124.4972 326.8739037999999 125.02845 Q 327.4989037999999 125.544075 328.6239037999999 125.544075 Q 329.7489037999999 125.544075 330.2957787999999 125.09095 Q 330.8426537999999 124.6222 330.8426537999999 123.9972 Q 330.8426537999999 123.450325 330.3582787999999 123.1222 Q 330.0301537999999 122.90345 328.6864037999999 122.575325 Q 326.8739037999999 122.106575 326.1707787999999 121.77845 Q 325.4832787999999 121.450325 325.1239037999999 120.8722 Q 324.7645287999999 120.27845 324.7645287999999 119.5597 Q 324.7645287999999 118.919075 325.0614037999999 118.3722 Q 325.3582787999999 117.8097 325.8739037999999 117.450325 Q 326.2489037999999 117.169075 326.9051537999999 116.981575 Q 327.5770287999999 116.77845 328.3270287999999 116.77845 Q 329.4676537999999 116.77845 330.3270287999999 117.106575 Q 331.1864037999999 117.4347 331.5926537999999 117.9972 Q 332.0145287999999 118.5597 332.1707787999999 119.4972 L 330.5614037999999 119.71595 Q 330.4520287999999 118.96595 329.9207787999999 118.544075 Q 329.4051537999999 118.1222 328.4520287999999 118.1222 Q 327.3114037999999 118.1222 326.8270287999999 118.4972 Q 326.3582787999999 118.8722 326.3582787999999 119.3722 Q 326.3582787999999 119.6847 326.5457787999999 119.950325 Q 326.7489037999999 120.21595 327.1864037999999 120.387825 Q 327.4207787999999 120.481575 328.6239037999999 120.8097 Q 330.3739037999999 121.262825 331.0614037999999 121.5597 Q 331.7489037999999 121.856575 332.1395287999999 122.419075 Q 332.5301537999999 122.981575 332.5301537999999 123.825325 Q 332.5301537999999 124.65345 332.0457787999999 125.3722 Q 331.5770287999999 126.09095 330.6707787999999 126.4972 Q 329.7645287999999 126.887825 328.6239037999999 126.887825 Q 326.7489037999999 126.887825 325.7489037999999 126.106575 Q 324.7645287999999 125.325325 324.4989037999999 123.77845 z" stroke-linecap="round" />
</g>
</g>
</g>
</svg>